<?xml version="1.0" standalone="no"?>
<!DOCTYPE svg PUBLIC "-//W3C//DTD SVG 20010904//EN"
 "http://www.w3.org/TR/2001/REC-SVG-20010904/DTD/svg10.dtd">
<svg version="1.0" xmlns="http://www.w3.org/2000/svg"
 width="1280.000000pt" height="607.000000pt" viewBox="0 0 1280.000000 607.000000"
 preserveAspectRatio="xMidYMid meet">

<g transform="translate(0.000000,607.000000) scale(0.100000,-0.100000)"
fill="#000000" stroke="none">
<path d="M0 5823 l1 -248 42 -26 c23 -15 84 -49 136 -75 51 -27 125 -66 165
-87 39 -21 105 -57 146 -79 41 -22 95 -51 120 -65 25 -14 90 -49 145 -77 140
-73 283 -150 377 -202 44 -24 83 -44 86 -44 3 0 51 -27 108 -60 56 -33 106
-60 111 -60 17 -1 61 -46 63 -65 5 -44 -2 -56 -42 -82 -63 -39 -108 -36 -204
17 -49 27 -90 43 -109 42 -32 -1 -120 -36 -130 -51 -7 -13 19 -37 61 -57 34
-16 53 -52 39 -74 -12 -19 -79 -57 -113 -63 -35 -7 -90 15 -142 55 -33 26 -87
48 -117 48 -14 0 -37 13 -54 30 -27 27 -100 60 -133 60 -7 0 -23 11 -36 25
-13 14 -29 25 -35 25 -16 0 -242 116 -272 140 -14 11 -32 20 -39 20 -8 0 -14
5 -14 10 0 6 -6 10 -12 10 -7 0 -43 16 -81 35 l-67 34 2 -596 c3 -584 3 -596
23 -607 11 -6 41 -28 66 -48 26 -21 51 -38 57 -38 6 0 23 -11 39 -23 15 -13
52 -32 81 -43 68 -24 79 -37 62 -70 -11 -20 -19 -24 -44 -19 -17 2 -25 2 -18
-1 6 -3 12 -12 12 -20 0 -19 -64 -19 -80 1 -19 23 -44 18 -68 -15 -23 -30 -28
-50 -14 -50 5 0 17 -18 28 -40 10 -22 22 -40 27 -40 4 0 7 -6 7 -14 0 -7 12
-22 27 -32 15 -9 42 -32 59 -51 17 -18 37 -33 43 -33 7 0 35 -24 64 -53 52
-53 52 -53 85 -40 45 19 95 -4 108 -49 7 -24 17 -34 40 -40 39 -10 63 -50 44
-73 -33 -40 -87 -38 -117 5 -7 10 -40 33 -74 50 l-60 30 -25 -27 c-20 -21 -23
-33 -18 -57 7 -35 40 -86 63 -100 9 -5 30 -25 47 -43 17 -18 36 -33 41 -33 6
0 16 -6 22 -14 7 -8 30 -17 52 -21 22 -4 46 -13 53 -21 22 -21 31 -17 49 21
22 46 57 49 57 5 0 -57 -56 -313 -90 -410 -4 -14 -11 -37 -14 -52 -9 -39 -33
-58 -162 -128 -112 -61 -116 -62 -202 -66 l-87 -4 84 15 c151 27 302 128 316
212 4 21 13 70 22 110 8 40 13 78 11 85 -5 13 -41 -114 -57 -195 -4 -26 -14
-53 -20 -61 -20 -24 -175 -114 -210 -121 -40 -8 -183 3 -176 14 2 5 43 11 90
13 66 5 97 12 137 33 82 42 104 67 121 143 28 118 59 299 55 322 l-3 22 -27
-22 c-26 -20 -27 -22 -12 -45 14 -21 13 -34 -6 -146 -19 -114 -43 -189 -59
-189 -3 0 -17 -10 -31 -23 -56 -51 -72 -57 -153 -57 -94 0 -97 19 -4 21 l62 2
-78 7 c-75 7 -110 21 -89 34 5 3 46 10 90 15 79 8 133 31 162 66 18 21 41 191
30 218 -12 29 -35 57 -46 56 -5 0 -24 -18 -41 -41 -18 -22 -33 -35 -33 -29 0
8 -6 8 -19 -1 -14 -8 -17 -16 -10 -24 5 -7 9 -16 8 -20 -1 -5 -1 -25 0 -44 2
-31 3 -33 11 -13 13 33 16 28 12 -17 -3 -32 -9 -41 -28 -46 -13 -3 -21 -11
-18 -16 8 -13 -15 -28 -31 -22 -8 3 -11 24 -10 57 3 58 -27 137 -51 137 -8 0
-16 15 -20 40 -4 22 -10 40 -14 40 -5 0 -19 17 -31 38 -13 20 -31 43 -41 50
-24 18 -23 56 4 103 18 32 20 43 10 64 -7 14 -12 37 -12 51 0 24 -53 225 -71
269 -4 11 -8 -597 -8 -1352 -1 -1298 0 -1372 17 -1376 16 -4 16 -5 0 -6 -10 0
-18 -6 -18 -12 0 -5 5 -7 10 -4 6 4 17 1 26 -5 16 -14 2 -40 -22 -40 -10 0
-14 -14 -14 -50 0 -42 3 -50 18 -50 20 0 52 -29 52 -47 0 -6 7 -16 15 -23 8
-7 15 -16 15 -21 0 -18 -45 -49 -72 -49 l-28 0 0 -85 0 -85 560 0 c419 0 570
3 600 12 22 7 40 16 40 20 0 5 8 8 18 9 14 0 14 2 -3 9 -19 7 -19 8 -2 15 17
7 42 27 118 93 23 20 51 61 70 103 18 38 34 67 36 65 3 -3 6 -29 8 -58 5 -75
-35 -158 -85 -175 -19 -6 -34 -16 -33 -21 1 -5 -11 -12 -27 -16 -34 -6 -37
-17 -14 -40 14 -14 236 -16 2299 -16 l2283 0 40 40 c29 29 48 40 70 40 48 0
79 -16 93 -49 l14 -31 2756 0 2757 0 13 31 c11 29 14 30 25 14 7 -9 17 -14 23
-11 5 4 14 -2 20 -11 5 -10 12 -15 16 -11 8 8 -14 47 -40 69 -19 16 -21 16
-37 -1 -10 -11 -18 -26 -18 -35 0 -8 -4 -15 -10 -15 -6 0 -6 10 1 27 7 19 7
29 0 31 -19 6 -12 44 12 66 34 33 70 79 89 112 26 47 124 84 143 54 3 -5 13
-10 21 -10 8 0 26 -12 39 -27 19 -22 24 -39 25 -81 0 -29 -6 -65 -14 -81 -14
-26 -126 -101 -152 -101 -7 0 -16 -4 -19 -10 -4 -7 49 -10 152 -10 l158 0 23
34 c27 40 83 70 129 69 46 -1 104 -34 123 -69 14 -25 23 -29 63 -32 46 -3 47
-2 47 25 0 41 18 97 38 120 50 58 163 73 272 35 l55 -19 3 21 c3 13 -4 26 -17
34 -28 19 -28 62 -1 62 17 0 20 7 20 44 0 25 -5 48 -10 51 -13 8 -13 45 0 45
7 0 10 340 10 1001 0 937 -1 1001 -17 995 -16 -6 -16 -6 0 12 15 17 17 76 17
691 0 610 -1 673 -16 667 -9 -3 -18 -6 -20 -6 -2 0 -4 -9 -4 -20 0 -29 -32
-25 -61 6 -17 19 -20 28 -11 31 7 3 19 11 27 19 8 8 27 21 42 29 26 14 28 13
35 -8 3 -12 6 65 7 171 1 180 0 192 -17 192 -25 0 -48 28 -56 69 -5 29 -2 38
24 62 16 16 34 29 40 29 7 0 10 287 10 855 l0 855 -1336 0 -1337 0 48 -45 48
-44 -5 -84 c-6 -93 -16 -118 -61 -161 -29 -27 -35 -28 -100 -23 -86 6 -107 23
-111 92 -1 27 -8 51 -14 53 -7 2 -12 10 -12 19 0 29 -51 83 -79 83 -23 0 -64
-20 -81 -40 -11 -13 -67 -34 -99 -36 -18 -2 -41 -10 -50 -19 -37 -33 -110 -1
-117 52 -2 9 -10 21 -19 26 -12 6 -15 16 -11 34 4 13 4 40 0 59 l-6 34 -1533
0 -1532 0 28 -96 c16 -53 27 -100 24 -104 -3 -5 -27 -12 -53 -16 -85 -12 -156
-31 -212 -57 -30 -14 -65 -28 -77 -32 -13 -3 -23 -12 -23 -20 0 -7 -17 -19
-37 -26 -21 -6 -50 -20 -65 -30 -14 -11 -31 -19 -36 -19 -16 0 -76 -61 -91
-92 -26 -51 12 -81 43 -34 16 26 65 56 126 80 8 3 42 21 75 39 33 18 79 39
103 46 23 8 42 18 42 22 0 5 21 18 48 29 26 11 54 25 62 30 8 6 25 14 37 19
11 6 32 21 45 35 13 15 46 31 78 40 30 8 54 19 53 25 -2 6 12 5 37 -4 22 -8
41 -14 43 -14 1 0 14 -2 30 -6 30 -8 38 -44 13 -65 -8 -6 -16 -21 -18 -33 -3
-21 -8 -22 -70 -19 -45 3 -68 0 -68 -7 0 -6 -6 -11 -14 -11 -7 0 -46 -19 -87
-41 -41 -23 -123 -69 -184 -102 -60 -33 -119 -68 -131 -79 -11 -10 -23 -18
-27 -18 -3 0 -54 -27 -112 -61 -66 -38 -117 -61 -138 -61 -17 -1 -59 -14 -92
-30 -64 -32 -137 -42 -170 -25 -22 12 -161 71 -211 91 -18 6 -38 16 -45 22 -8
5 -43 23 -79 39 -36 16 -72 35 -81 42 -8 7 -21 13 -27 13 -7 0 -12 3 -12 8 0
11 -80 40 -135 48 -58 8 -151 38 -172 56 -24 20 -81 49 -168 88 -11 5 -67 31
-125 59 -140 66 -178 81 -206 81 -12 0 -26 5 -29 10 -3 6 -16 10 -28 11 -19 0
-19 1 -4 7 16 7 16 9 3 27 -18 24 -21 106 -4 123 9 9 -98 12 -481 12 l-494 0
7 -52 c13 -105 15 -151 5 -170 -5 -10 -6 -18 -1 -18 13 0 72 -104 72 -126 0
-12 3 -24 8 -28 27 -27 29 -229 1 -246 -11 -8 -15 -143 -4 -160 3 -4 10 -42
15 -84 6 -42 17 -87 24 -101 12 -22 11 -33 -3 -71 -17 -43 -41 -78 -41 -58 0
5 -17 8 -37 8 -25 -1 -62 10 -105 31 -109 53 -217 70 -215 33 1 -25 -16 -78
-24 -78 -19 0 -8 -58 22 -113 29 -56 46 -127 29 -127 -18 0 8 -110 34 -139 12
-12 28 -31 37 -40 8 -10 43 -23 78 -31 34 -7 64 -17 67 -21 3 -5 13 -9 23 -9
31 0 51 -33 51 -86 0 -84 28 -295 49 -378 13 -47 21 -111 21 -157 0 -43 5 -89
11 -102 9 -20 7 -36 -9 -83 -12 -31 -18 -62 -15 -67 4 -6 0 -8 -10 -4 -9 3
-19 2 -22 -3 -4 -6 2 -10 13 -10 19 0 82 61 82 80 0 21 47 10 60 -15 12 -22
12 -28 -1 -39 -8 -8 -25 -16 -39 -18 -14 -2 -31 -9 -38 -15 -7 -7 -24 -13 -38
-13 -15 0 -24 -6 -24 -15 0 -8 -8 -15 -19 -15 -10 0 -29 -8 -42 -19 -56 -44
-159 -91 -184 -85 -14 3 -23 10 -20 14 3 4 -9 10 -25 14 -21 4 -30 11 -30 25
0 26 -11 32 -65 33 -39 0 -48 4 -55 23 -5 13 -17 28 -27 34 -15 9 -16 12 -3
20 21 14 6 24 -44 28 -30 3 -48 -1 -59 -11 -9 -9 -20 -16 -26 -16 -6 0 -11 -4
-11 -9 0 -11 -78 -28 -139 -30 -36 -1 -49 -8 -71 -33 -23 -26 -36 -32 -83 -36
-75 -6 -106 16 -107 74 0 52 38 91 101 102 44 8 44 8 41 46 -2 27 2 43 15 54
11 10 24 34 30 55 10 34 9 39 -8 50 -10 6 -19 20 -19 29 0 10 -4 18 -9 18 -8
0 -31 52 -31 71 0 5 6 9 13 9 11 0 10 15 -2 78 -9 42 -19 78 -23 80 -4 2 -5 9
-2 17 5 13 -32 76 -48 83 -13 6 -9 77 6 113 20 47 45 68 102 83 66 18 98 32
115 48 8 7 35 24 62 38 26 14 47 28 47 32 0 4 13 14 30 23 35 18 51 44 44 73
-5 16 -12 20 -40 17 -22 -2 -40 3 -50 13 -16 16 -68 21 -81 8 -4 -4 -8 -25 -8
-47 0 -21 -1 -39 -3 -39 -2 0 -17 9 -33 21 -37 26 -54 20 -62 -20 -8 -37 -32
-41 -66 -11 -16 13 -31 17 -52 13 -31 -6 -30 -9 -50 107 -6 35 -17 84 -26 108
-25 74 1 167 49 174 14 2 29 18 43 45 24 48 63 93 81 93 6 0 29 17 50 38 46
46 66 57 117 66 21 4 37 13 37 21 0 12 79 43 152 59 19 4 30 15 34 31 3 14 17
34 30 44 13 10 24 23 24 29 0 5 7 15 15 22 20 17 19 63 -2 86 -32 34 -110 93
-138 104 -15 6 -63 12 -107 15 -43 3 -84 7 -89 10 -5 4 -9 1 -9 -4 0 -6 -10
-11 -23 -11 -13 0 -34 -13 -50 -31 -20 -23 -32 -29 -48 -24 -12 4 -19 3 -16
-1 3 -5 -1 -15 -9 -22 -8 -7 -14 -11 -14 -8 0 3 -19 -1 -41 -9 -74 -27 -189
-13 -189 23 0 6 -4 12 -10 12 -5 0 -10 8 -10 18 0 14 2 15 10 2 9 -13 10 -13
10 1 0 10 -14 19 -37 25 -24 6 -37 15 -35 23 2 11 -10 13 -56 8 -46 -4 -75 0
-127 18 -37 12 -77 20 -87 17 -18 -4 -19 -10 -12 -56 4 -28 6 -78 5 -112 -2
-61 -2 -61 42 -97 24 -20 70 -47 101 -61 32 -14 76 -38 99 -53 23 -16 54 -34
69 -42 14 -7 43 -31 64 -52 31 -32 37 -45 38 -82 1 -57 -21 -83 -84 -96 -58
-12 -98 -3 -192 47 l-68 35 -45 -17 c-25 -10 -45 -24 -45 -32 0 -7 16 -24 35
-36 25 -16 37 -33 41 -57 8 -42 -2 -61 -47 -83 -59 -31 -114 -23 -213 27 -49
25 -96 45 -105 46 -15 0 -40 14 -93 52 -14 10 -38 20 -53 23 -14 2 -48 15 -73
28 -70 34 -594 300 -617 313 -11 6 -40 20 -65 33 -49 24 -136 67 -160 80 -8 5
-84 43 -169 85 -85 42 -150 80 -145 85 8 7 520 153 739 210 321 84 375 95 360
69 -4 -6 -13 -8 -21 -5 -8 3 -11 0 -7 -10 3 -7 0 -14 -6 -14 -6 0 -10 -3 -10
-7 3 -20 -3 -32 -30 -60 -16 -17 -35 -33 -42 -35 -22 -7 101 -121 174 -162 85
-48 106 -47 165 10 51 49 145 112 177 119 11 2 37 7 59 10 26 4 40 12 43 26 3
10 9 19 13 19 5 0 11 14 15 30 4 17 11 30 16 30 5 0 9 5 9 11 0 14 116 129
130 129 5 0 10 5 10 10 0 7 -340 10 -1000 10 l-1000 0 0 -247z m8751 77 c24
-10 29 -18 29 -46 0 -18 4 -35 10 -39 15 -9 -1 -35 -22 -35 -11 0 -35 15 -54
34 -38 38 -45 76 -14 76 15 0 19 6 16 28 -2 15 -1 20 1 10 2 -9 17 -22 34 -28z
m211 -26 c14 -14 -24 -90 -53 -106 -39 -23 -44 -23 -69 4 -18 20 -19 23 -3 40
15 17 15 18 -10 18 -18 0 -25 4 -21 14 3 7 14 11 28 9 13 -3 43 2 67 11 51 17
54 18 61 10z m-1517 -244 c77 -40 77 -40 39 -40 -58 0 -144 23 -144 38 0 10
18 39 26 42 1 0 36 -18 79 -40z m125 -49 c0 -6 -4 -13 -10 -16 -5 -3 -10 1
-10 9 0 9 5 16 10 16 6 0 10 -4 10 -9z m1831 -191 c14 0 11 -23 -10 -66 -10
-21 -21 -56 -25 -76 -4 -22 -15 -42 -26 -48 -36 -19 -90 17 -90 61 0 35 58
113 88 117 12 2 22 8 22 14 0 5 7 7 16 4 9 -3 20 -6 25 -6z m394 -42 c49 -10
122 -45 132 -62 5 -7 18 -18 31 -25 36 -19 23 -71 -19 -71 -9 0 -38 -10 -65
-22 -110 -48 -380 -17 -415 49 -24 45 45 117 130 134 46 9 155 8 206 -3z
m-1867 -116 c51 -26 76 -75 77 -149 0 -35 3 -63 6 -63 11 0 29 -51 29 -84 0
-17 -6 -41 -14 -51 -9 -12 -11 -27 -6 -40 4 -11 4 -30 -1 -43 -9 -24 -54 -46
-75 -38 -8 3 -34 -1 -58 -8 -38 -12 -46 -12 -50 0 -7 18 -43 18 -53 -1 -5 -8
-31 -16 -67 -20 -59 -5 -86 -21 -86 -49 0 -18 -34 -39 -57 -34 -12 2 -17 17
-20 53 -2 28 -4 66 -6 86 -1 21 -14 50 -29 70 -15 19 -38 48 -50 64 -16 21
-30 29 -46 27 -22 -3 -23 -7 -17 -45 4 -23 16 -56 26 -73 10 -17 19 -45 19
-62 0 -21 11 -42 36 -68 34 -37 35 -38 16 -54 -11 -8 -22 -26 -26 -40 -11 -45
-19 -51 -54 -39 -30 10 -32 13 -29 57 2 46 1 47 -29 50 -32 3 -53 35 -33 48
20 12 -12 44 -44 44 -128 0 -193 85 -116 151 19 16 33 35 32 42 -6 30 115 65
131 38 3 -5 17 -11 31 -13 21 -4 25 -1 25 18 0 14 -6 24 -14 24 -18 0 -30 33
-21 59 7 22 72 38 88 22 14 -14 30 -14 22 -1 -6 10 94 77 109 72 5 -2 30 -5
56 -8 43 -5 51 -2 85 27 39 34 111 58 154 52 14 -3 41 -12 59 -21z m392 -92
c0 -5 -9 -10 -20 -10 -11 0 -20 5 -20 10 0 6 9 10 20 10 11 0 20 -4 20 -10z
m-1360 -203 c11 -22 20 -47 20 -56 0 -8 9 -24 19 -35 11 -13 21 -39 23 -66 3
-42 1 -45 -32 -63 -19 -10 -27 -16 -17 -13 20 6 29 0 88 -55 33 -31 39 -43 39
-77 0 -49 -7 -52 -110 -52 -111 0 -138 7 -156 42 -14 26 -14 32 0 53 8 13 34
34 57 47 24 12 44 29 47 35 2 7 -13 22 -33 34 -26 16 -35 27 -32 40 4 14 0 19
-15 19 -26 0 -84 35 -92 56 -3 9 3 28 13 43 11 15 21 42 23 61 3 32 6 35 43
40 61 8 93 -6 115 -53z m-2920 -72 c0 -15 10 -31 25 -41 25 -17 38 -16 138 2
37 7 38 6 35 -22 -3 -25 0 -29 33 -34 74 -13 209 -95 209 -127 0 -7 5 -13 10
-13 6 0 10 -5 10 -12 0 -6 8 -20 17 -30 15 -17 15 -20 3 -28 -8 -6 -10 -10 -4
-10 6 0 11 -18 12 -40 1 -22 -2 -40 -7 -40 -5 0 -12 -18 -16 -41 -5 -29 -11
-39 -21 -35 -9 3 -18 -2 -21 -12 -12 -33 -47 -73 -60 -68 -6 3 -10 0 -8 -7 3
-7 -18 -22 -50 -36 -30 -13 -55 -27 -55 -31 0 -4 -8 -10 -17 -14 -31 -10 -108
-63 -106 -72 1 -5 -8 -10 -20 -11 -12 -1 -39 -5 -59 -9 -25 -4 -38 -2 -38 5 0
6 -11 11 -25 11 -14 0 -25 4 -25 9 0 6 -29 24 -65 41 -36 17 -65 35 -65 41 0
5 -4 9 -10 9 -5 0 -56 22 -112 49 -57 27 -128 59 -158 72 -125 52 -167 101
-167 193 0 33 5 69 11 80 32 58 41 66 76 66 44 1 78 19 93 51 10 19 22 25 62
29 52 5 95 26 95 46 0 16 25 25 84 30 l49 5 -16 -24 c-18 -28 -4 -55 19 -36
10 8 22 6 44 -8 27 -15 32 -16 40 -3 5 8 10 30 10 48 0 20 4 31 10 27 6 -3 13
1 16 9 9 22 24 10 24 -19z m3724 -330 c16 -15 39 -25 57 -25 17 0 32 -6 36
-15 8 -22 4 -24 -65 -37 -54 -10 -61 -14 -66 -40 -5 -25 -9 -28 -46 -28 -27 0
-43 5 -46 15 -4 8 -12 15 -19 15 -16 0 -29 50 -17 62 10 10 64 -3 105 -23 20
-11 22 0 7 50 -16 57 8 68 54 26z m236 -72 c0 -20 -28 -53 -47 -53 -7 0 -13
-4 -13 -8 0 -5 -25 -13 -55 -19 -30 -5 -55 -6 -55 -1 0 4 4 8 10 8 5 0 7 6 4
13 -3 8 13 19 45 31 27 9 57 24 67 31 26 19 44 19 44 -2z m1037 -35 c-3 -7 -5
-2 -5 12 0 14 2 19 5 13 2 -7 2 -19 0 -25z m-1593 -117 c1 -63 -2 -84 -14 -91
-8 -5 -17 -10 -20 -10 -3 0 -5 49 -5 110 0 107 0 109 19 91 14 -15 18 -35 20
-100z m1574 80 c3 -16 -1 -22 -10 -19 -7 3 -15 15 -16 27 -3 16 1 22 10 19 7
-3 15 -15 16 -27z m-922 4 c4 -8 1 -22 -6 -30 -7 -9 -10 -18 -6 -22 10 -11
124 18 178 45 19 9 -8 -42 -33 -62 -16 -14 -29 -27 -29 -30 0 -10 59 -6 65 4
3 6 17 10 31 10 13 0 24 4 24 8 0 4 20 18 43 29 52 25 75 18 51 -15 -8 -12
-19 -22 -23 -22 -14 0 -101 -83 -101 -97 0 -18 11 -16 68 12 28 14 54 25 59
25 6 0 24 7 42 16 40 20 54 9 21 -17 -14 -10 -34 -27 -45 -37 -11 -10 -36 -29
-55 -42 -19 -13 -49 -37 -65 -53 -17 -15 -53 -41 -80 -55 -66 -36 -100 -102
-92 -179 5 -51 4 -55 -39 -108 -25 -30 -42 -59 -39 -65 6 -10 85 42 98 66 4 7
10 26 12 41 8 62 24 76 123 104 169 48 246 19 123 -47 -24 -13 -49 -28 -55
-34 -5 -5 -20 -10 -32 -10 -15 0 -25 -10 -34 -32 -16 -40 -47 -76 -80 -93 -37
-19 -54 -56 -46 -100 l7 -36 32 34 c38 41 98 85 150 112 20 11 37 23 37 27 0
5 7 8 15 8 8 0 15 4 15 9 0 15 60 32 140 41 62 7 99 4 210 -17 74 -13 136 -26
138 -28 17 -17 -137 -52 -253 -58 l-50 -2 0 -45 c0 -37 -4 -46 -25 -56 -14 -6
-50 -24 -82 -38 -31 -15 -63 -37 -72 -51 -21 -32 -47 -38 -96 -25 -35 9 -45 9
-58 -4 -10 -8 -30 -17 -47 -21 -54 -12 -89 -28 -140 -65 -27 -21 -104 -70
-170 -110 -66 -41 -137 -89 -158 -107 -43 -39 -41 -38 -78 -16 -39 23 -34 41
20 70 25 13 76 46 113 73 38 28 71 50 74 50 3 0 44 26 92 58 48 31 111 68 140
81 41 19 52 29 52 48 0 29 -4 29 -43 1 -18 -13 -48 -31 -67 -40 -50 -25 -380
-238 -419 -271 -19 -15 -40 -26 -48 -23 -8 4 -19 6 -23 6 -5 0 -14 9 -20 20
-10 18 -4 25 55 62 73 47 90 79 28 53 -36 -15 -84 -51 -91 -68 -2 -4 -12 -12
-23 -17 -23 -13 -89 12 -89 33 0 12 51 57 66 57 7 0 54 48 54 55 0 7 -31 -8
-101 -47 -60 -35 -68 -37 -103 -27 l-38 11 21 22 c34 37 27 46 -26 30 -25 -8
-50 -14 -55 -14 -15 0 -8 43 10 63 16 19 16 19 -3 14 -11 -3 -39 -9 -62 -12
-24 -4 -45 -11 -49 -16 -3 -5 -11 -9 -17 -9 -7 0 -6 4 3 11 12 9 11 10 -7 6
-13 -3 -26 -1 -29 4 -7 11 -64 8 -64 -4 0 -4 -11 4 -25 19 -33 36 -32 48 10
74 19 12 40 31 46 41 9 17 6 21 -21 30 -22 8 -33 19 -37 40 -3 16 -9 29 -14
29 -10 0 -16 -21 -24 -87 -4 -29 -16 -64 -27 -79 -26 -33 -64 -29 -134 15 -35
22 -52 27 -61 19 -9 -7 -15 -6 -19 7 -10 26 11 41 38 27 44 -21 66 -23 82 -7
9 9 16 19 17 23 8 90 11 98 51 134 l40 37 -7 99 c-7 93 -6 101 14 121 48 48
67 21 70 -104 3 -131 10 -146 54 -104 12 11 31 25 42 30 25 11 58 32 65 40 14
17 165 109 174 106 6 -2 13 -19 16 -37 l5 -33 29 25 c32 27 36 54 21 139 -10
60 6 83 95 142 81 54 143 80 158 65 13 -13 66 4 144 48 33 19 62 34 66 34 3 0
21 12 40 28 20 15 45 32 56 39 30 18 85 16 92 -2z m211 -1 c-3 -3 -12 -4 -19
-1 -8 3 -5 6 6 6 11 1 17 -2 13 -5z m2845 -35 c34 -16 62 -59 62 -96 0 -49
-48 -94 -101 -95 -45 0 -98 23 -113 51 -13 25 -13 77 0 101 23 42 102 63 152
39z m-4062 -24 c20 -24 16 -93 -6 -110 -22 -17 -44 -19 -44 -5 0 6 -7 10 -15
10 -21 0 -39 43 -31 75 10 40 72 59 96 30z m4587 -16 c27 -17 43 -51 43 -94 0
-25 -8 -40 -31 -59 -17 -14 -40 -27 -52 -27 -12 -1 -38 -2 -57 -3 -32 -1 -35
-4 -41 -39 -9 -58 -46 -89 -111 -95 -64 -5 -98 16 -117 76 -25 74 27 125 128
126 38 1 46 4 49 21 2 16 32 95 36 95 1 0 19 6 40 14 41 14 74 10 113 -15z
m-5302 -139 c68 -63 21 -165 -76 -165 -43 0 -94 40 -101 80 -6 31 15 79 43 99
32 23 102 16 134 -14z m2189 8 c-8 -18 -88 -75 -138 -100 -22 -11 -48 -23 -57
-28 -9 -5 -33 -12 -53 -15 -29 -6 -36 -4 -36 9 0 9 5 16 11 16 6 0 25 11 42
24 18 14 45 28 62 32 16 4 57 22 90 40 64 35 88 41 79 22z m2024 -16 c13 -10
25 -33 29 -55 9 -56 -23 -87 -89 -87 -59 0 -88 24 -88 74 0 68 93 110 148 68z
m-5342 -84 c22 -15 34 -33 37 -56 8 -46 0 -60 -36 -65 -28 -3 -29 -5 -11 -11
26 -9 64 -78 64 -114 -1 -37 -17 -55 -69 -76 -43 -17 -45 -17 -70 2 -14 10
-32 31 -39 46 -12 23 -11 32 7 70 12 23 21 45 21 49 0 3 -16 9 -35 13 -37 7
-65 36 -65 67 0 25 37 77 64 87 40 16 98 11 132 -12z m7074 -28 c0 -5 -4 -10
-10 -10 -5 0 -10 5 -10 10 0 6 5 10 10 10 6 0 10 -4 10 -10z m-2932 -53 c25
-23 30 -82 10 -110 -28 -38 -108 -38 -149 -1 -41 37 -13 116 46 133 37 11 63
5 93 -22z m1639 -9 c24 -27 22 -94 -3 -113 -22 -17 -67 -19 -94 -5 -44 24 -43
122 2 139 30 11 75 1 95 -21z m1213 -33 c-8 -20 -6 -23 7 -18 39 15 -26 -53
-91 -94 -38 -25 -76 -52 -84 -60 -34 -33 -62 -46 -76 -34 -21 17 -27 51 -10
58 8 3 14 10 14 17 0 6 14 20 31 31 16 11 46 41 65 67 34 45 37 47 92 51 31 2
58 4 59 5 1 1 -2 -9 -7 -23z m-1937 -13 c28 -31 13 -88 -30 -111 -32 -16 -61
4 -74 52 -9 33 -7 42 7 58 22 24 76 25 97 1z m-3640 -3 c41 -22 77 -74 77
-111 -1 -36 -23 -57 -71 -64 -24 -3 -72 -22 -107 -41 -66 -36 -89 -37 -127 -3
-49 43 -80 51 -180 44 -64 -5 -95 -4 -95 4 0 5 18 13 40 17 42 7 106 45 128
77 8 10 24 31 36 45 l23 26 39 -26 c58 -40 114 -34 176 18 34 29 33 29 61 14z
m5990 0 c37 -20 37 -32 -1 -52 -21 -11 -39 -22 -42 -26 -3 -4 -17 -12 -32 -18
-39 -18 -38 6 2 35 19 15 30 31 30 47 0 28 10 31 43 14z m-6773 -109 c0 -35
-36 -60 -84 -60 -54 0 -76 19 -76 67 0 26 5 36 20 40 11 3 20 9 20 13 0 5 8
10 18 12 25 6 102 -49 102 -72z m-322 -8 c23 -25 42 -53 42 -60 0 -8 9 -27 21
-43 18 -25 27 -29 68 -29 32 0 55 -6 69 -19 28 -24 28 -33 -4 -70 -38 -45 -75
-42 -127 10 -22 22 -48 44 -58 50 -23 12 -81 12 -115 -1 -54 -21 -100 -21
-118 -1 -31 34 -19 161 14 161 6 0 10 6 10 13 0 26 65 48 120 41 26 -3 46 -17
78 -52z m3542 -27 c0 -18 -56 -55 -83 -55 -29 0 -15 23 29 47 46 27 54 28 54
8z m-8002 -30 c12 -14 22 -32 22 -40 0 -25 -23 -65 -37 -65 -7 0 -13 -4 -13
-9 0 -21 -41 -22 -74 -2 -26 16 -35 30 -38 56 -3 30 1 39 26 60 41 32 86 32
114 0z m9642 -5 c47 -47 2 -129 -65 -116 -57 11 -85 78 -48 118 23 25 87 24
113 -2z m1158 -53 c2 -22 -3 -48 -11 -60 -15 -23 -89 -67 -113 -67 -8 0 -14
-3 -14 -8 0 -20 -61 -72 -84 -72 -14 0 -33 -10 -44 -25 -26 -33 -71 -41 -111
-21 -52 28 -36 73 39 103 19 8 49 27 65 43 17 15 51 35 76 45 26 9 56 29 67
44 23 32 78 62 107 58 15 -1 21 -11 23 -40z m-2810 -57 c36 -29 38 -37 15 -62
-21 -23 -53 -23 -112 3 -42 17 -47 23 -43 45 3 18 0 24 -12 24 -10 0 -14 5
-10 11 4 7 30 10 69 7 47 -3 69 -10 93 -28z m-8127 -29 c33 -34 36 -58 13
-107 -31 -66 -130 -87 -178 -39 -51 51 -45 113 13 152 51 34 114 32 152 -6z
m3804 -7 c84 -40 51 -165 -47 -181 -47 -7 -103 20 -118 57 -17 40 12 98 60
122 43 22 63 22 105 2z m1556 3 c-1 -4 -1 -15 -1 -25 0 -17 -35 -40 -333 -224
-43 -26 -82 -48 -86 -48 -5 0 -20 -9 -35 -21 -28 -22 -85 -55 -146 -86 -19
-10 -37 -21 -40 -24 -3 -4 -27 -19 -55 -34 -27 -15 -57 -33 -65 -41 -8 -7 -40
-26 -70 -41 -75 -40 -96 -53 -153 -91 -26 -18 -58 -37 -70 -42 -25 -11 -59
-32 -67 -41 -3 -3 -27 -16 -55 -30 -27 -13 -54 -30 -58 -36 -4 -7 -17 -13 -27
-13 -11 0 -20 -4 -20 -10 0 -5 -7 -10 -15 -10 -8 0 -23 -9 -32 -20 -10 -11
-27 -20 -39 -20 -12 0 -24 -6 -27 -12 -4 -10 -7 -10 -18 0 -12 11 -10 16 11
32 14 11 32 20 40 20 8 1 31 14 50 30 19 17 44 30 57 30 12 0 26 6 30 14 8 14
79 58 126 78 30 14 38 43 10 34 -10 -3 -71 -7 -136 -10 -115 -5 -119 -5 -143
19 -27 27 -30 45 -12 63 19 19 44 14 76 -13 27 -22 39 -25 116 -25 59 0 96 5
120 17 32 15 39 15 75 1 29 -11 38 -12 35 -3 -3 6 12 25 33 41 67 51 73 58 73
86 0 38 29 52 67 33 36 -19 53 -19 53 1 0 9 -22 25 -54 39 -60 26 -111 27
-350 5 -105 -9 -122 -8 -135 5 -14 14 -14 17 -1 25 36 24 98 30 293 30 l208 0
60 -32 c53 -29 61 -30 74 -17 14 14 11 19 -25 48 -80 64 -24 101 62 41 43 -29
43 -29 88 -14 59 19 84 59 61 93 -14 22 -14 25 8 42 14 11 39 19 62 19 22 0
47 4 57 9 9 5 37 17 62 26 25 10 68 28 95 41 28 13 58 24 67 24 9 0 18 3 20 8
5 10 62 42 71 39 5 -1 8 -6 8 -10z m277 -58 c53 -28 103 -56 110 -61 6 -6 12
-7 12 -3 0 4 6 2 13 -4 8 -6 130 -70 273 -142 142 -72 270 -139 284 -149 14
-9 47 -25 73 -36 26 -10 56 -26 65 -34 9 -8 29 -21 45 -27 16 -8 27 -20 27
-32 0 -25 12 -32 30 -20 10 6 11 9 3 9 -7 0 -13 4 -13 9 0 10 38 3 45 -9 14
-22 -9 -40 -49 -40 l-42 0 4 -36 c4 -29 1 -36 -17 -41 -11 -3 -21 -13 -21 -22
0 -9 -9 -22 -19 -28 -11 -7 -21 -23 -23 -35 -2 -18 -10 -23 -36 -25 -39 -2
-57 -13 -21 -13 13 0 35 -9 48 -19 23 -18 24 -20 8 -36 -10 -10 -25 -14 -34
-11 -21 8 -53 -21 -46 -42 4 -10 2 -13 -5 -8 -13 8 -51 -31 -58 -61 -4 -16
-14 -23 -30 -23 -21 0 -24 -5 -24 -39 0 -30 -4 -40 -20 -44 -16 -4 -18 -11
-14 -43 2 -24 1 -32 -3 -21 -8 16 -9 16 -26 -3 -9 -11 -17 -36 -17 -55 0 -27
-4 -35 -18 -35 -9 0 -25 -11 -36 -24 -10 -14 -23 -23 -30 -20 -7 3 -26 -12
-42 -33 -29 -38 -31 -41 -33 -68 0 -8 -10 -15 -21 -15 -11 0 -20 -4 -20 -9 0
-5 -8 -8 -17 -7 -11 1 -20 -10 -26 -31 -8 -25 -16 -33 -33 -33 -13 0 -24 -4
-24 -10 0 -5 5 -10 10 -10 17 0 11 -56 -7 -73 -10 -8 -21 -16 -26 -16 -16 -2
-47 -27 -47 -38 0 -13 -11 -17 -42 -14 -13 2 -16 -2 -11 -16 6 -15 4 -16 -9
-5 -13 10 -18 8 -32 -12 -9 -14 -16 -30 -16 -36 0 -5 -19 -10 -42 -11 -29 0
-37 -3 -24 -8 15 -6 11 -10 -23 -21 -23 -7 -43 -21 -46 -32 -4 -10 -14 -18
-23 -18 -10 0 -35 -17 -57 -38 -22 -21 -55 -45 -72 -53 -18 -8 -33 -17 -33
-21 0 -5 -5 -8 -12 -8 -7 0 -22 -12 -33 -26 -20 -25 -23 -26 -47 -13 -14 8
-57 29 -94 47 -174 85 -519 260 -614 312 -58 31 -143 77 -190 102 -47 25 -139
76 -205 113 -66 37 -142 79 -170 95 -82 45 -136 76 -210 119 -38 23 -80 41
-92 41 -13 0 -23 5 -23 10 0 6 4 10 8 10 11 0 217 118 330 188 46 29 85 52 88
52 2 0 64 37 137 82 387 238 595 365 616 378 14 8 30 18 35 23 6 4 72 44 146
89 279 168 395 240 407 250 13 10 80 37 96 38 4 0 52 -23 105 -51z m-3740 24
c-10 -2 -26 -2 -35 0 -10 3 -2 5 17 5 19 0 27 -2 18 -5z m2179 -15 c-3 -8 -6
-5 -6 6 -1 11 2 17 5 13 3 -3 4 -12 1 -19z m-1395 -25 c33 -20 67 -46 77 -58
9 -12 33 -27 54 -34 39 -13 67 -44 67 -74 0 -10 -13 -32 -29 -48 -47 -47 -114
-39 -171 20 -14 14 -42 39 -62 55 -37 29 -38 31 -38 96 0 96 10 100 102 43z
m1605 -8 c47 -32 82 -42 144 -44 31 -2 107 -61 118 -93 6 -17 11 -33 11 -34 0
-2 -18 -4 -40 -4 -29 0 -40 4 -40 15 0 8 -6 15 -14 15 -7 0 -21 12 -31 26 -16
25 -20 26 -75 20 -52 -6 -101 4 -120 24 -3 3 -22 14 -42 25 -21 11 -38 23 -38
28 0 4 -4 6 -8 3 -5 -3 -20 1 -35 9 -14 7 -28 11 -31 7 -3 -3 -6 -1 -6 4 0 17
74 43 113 39 23 -2 61 -18 94 -40z m-2958 -30 c98 -50 4 -191 -95 -143 -57 27
-57 104 -1 138 38 24 59 25 96 5z m544 -12 c-7 -2 -21 -2 -30 0 -10 3 -4 5 12
5 17 0 24 -2 18 -5z m6036 -14 c34 -32 23 -50 -47 -77 -41 -16 -80 -40 -110
-69 -39 -39 -50 -44 -76 -39 -17 3 -39 16 -49 27 -16 20 -16 23 -2 39 9 10 29
20 44 23 42 9 116 58 134 90 20 34 72 37 106 6z m2449 1 c46 -43 16 -100 -52
-100 -55 0 -70 12 -70 54 0 62 75 90 122 46z m-8442 -27 c-10 -10 -19 5 -10
18 6 11 8 11 12 0 2 -7 1 -15 -2 -18z m1114 -23 c0 -6 8 -10 18 -10 14 0 12
-4 -8 -20 -22 -17 -23 -22 -12 -39 6 -12 12 -39 12 -62 0 -35 -6 -47 -39 -78
-58 -55 -68 -61 -96 -61 -14 0 -25 -4 -25 -10 0 -5 4 -10 9 -10 10 0 27 -39
23 -52 -1 -5 9 -8 22 -8 28 0 72 -33 81 -60 4 -11 10 -18 13 -16 13 8 70 -22
82 -43 13 -25 2 -50 -35 -79 l-25 -19 64 0 c35 0 69 -4 75 -7 17 -11 13 -65
-5 -84 -33 -33 -262 -18 -309 21 -5 4 -18 13 -28 20 -17 12 -16 16 22 67 27
36 37 56 29 59 -24 7 -58 44 -58 63 0 13 -8 18 -31 18 -17 0 -44 9 -59 20
l-29 20 2 -71 c2 -60 -1 -73 -18 -85 -11 -8 -28 -21 -38 -29 -9 -8 -24 -15
-32 -15 -7 0 -17 -4 -20 -10 -3 -5 -19 -10 -36 -10 -24 0 -29 -4 -29 -24 0
-25 -35 -60 -71 -71 -11 -4 -17 -11 -14 -16 10 -16 32 -10 63 16 20 17 42 25
67 25 54 0 76 -15 73 -50 -3 -34 -45 -60 -97 -60 -26 0 -31 -4 -31 -23 0 -55
-39 -60 -131 -14 -83 40 -126 77 -135 113 -4 16 -17 48 -30 72 -13 23 -24 44
-24 46 0 2 15 11 33 20 17 9 46 25 62 35 120 74 150 91 157 91 11 0 157 99
181 123 20 20 15 33 -18 39 -51 9 -58 122 -9 134 35 9 69 -9 85 -45 13 -29 17
-31 71 -31 53 0 59 3 97 40 39 38 41 44 41 99 0 56 1 58 38 78 36 20 72 16 72
-7z m5422 6 c19 -29 -30 -60 -70 -45 -20 8 -29 6 -45 -12 -13 -14 -23 -17 -30
-10 -12 12 9 44 26 38 5 -1 22 10 38 26 29 29 64 30 81 3z m-6445 -22 c-3 -3
-12 -4 -19 -1 -8 3 -5 6 6 6 11 1 17 -2 13 -5z m73 -9 c0 -8 7 -15 15 -15 26
0 16 -16 -12 -18 -16 -1 -34 6 -45 18 -24 26 -23 30 12 30 20 0 30 -5 30 -15z
m1939 -4 c21 -16 40 -17 192 -13 122 3 177 1 199 -8 16 -7 30 -16 30 -20 0
-16 -127 -37 -289 -46 -74 -4 -99 -10 -122 -26 -41 -30 -37 -44 11 -40 35 4
40 1 40 -16 0 -17 -9 -20 -72 -26 -50 -4 -87 -2 -118 7 -38 12 -41 15 -23 21
31 10 36 33 12 65 -16 22 -18 32 -10 53 23 61 101 86 150 49z m-2477 -3 c36
-28 42 -138 8 -138 -6 0 -9 -4 -5 -9 6 -11 -42 -51 -61 -51 -8 0 -14 -4 -14
-10 0 -5 -18 -10 -39 -10 -46 0 -49 15 -11 55 18 19 20 25 8 25 -17 0 -28 28
-28 71 0 55 98 101 142 67z m7027 -54 c-11 -13 -20 -12 -47 9 -20 16 7 27 35
14 17 -8 20 -13 12 -23z m-1383 -32 c6 -4 17 -25 25 -46 15 -43 37 -56 129
-76 54 -12 56 -11 118 23 34 20 62 34 62 31 0 -3 9 0 20 6 19 10 20 10 8 -9
-6 -11 -29 -28 -49 -38 -21 -10 -36 -20 -34 -23 3 -5 -18 -19 -210 -147 -138
-92 -123 -88 -204 -48 -38 19 -73 35 -78 35 -4 0 -25 14 -47 30 -21 16 -54 34
-72 40 -19 7 -34 15 -34 19 0 17 39 42 74 48 31 5 35 3 30 -11 -9 -23 14 -46
46 -46 44 0 46 27 3 52 l-36 22 24 19 c23 18 23 18 30 -2 15 -38 84 -56 96
-24 8 20 -30 53 -60 53 -15 0 -9 9 27 36 76 58 109 72 132 56z m-3429 -23 c17
-6 23 -14 19 -25 -9 -23 10 -51 39 -58 14 -4 25 -13 25 -21 0 -10 9 -12 35 -8
41 7 85 -17 85 -47 0 -10 -17 -32 -37 -49 -45 -37 -91 -41 -119 -10 -35 38
-129 79 -183 79 -50 0 -50 0 -63 -41 -11 -40 -11 -43 14 -63 15 -11 42 -33 60
-48 18 -15 42 -28 53 -28 26 0 65 -27 65 -44 0 -21 -35 -46 -72 -53 -27 -4
-40 -1 -54 15 -10 11 -35 28 -54 39 -19 10 -48 27 -63 37 -35 23 -112 32 -133
16 -11 -10 -15 -8 -22 11 -7 17 -4 29 12 47 39 46 47 51 82 58 25 5 34 11 30
21 -3 8 -6 19 -6 24 0 5 -5 9 -11 9 -6 0 -8 -7 -5 -17 8 -19 -9 -33 -41 -33
-13 0 -23 -4 -23 -10 0 -5 -7 -10 -15 -10 -8 0 -15 -3 -15 -7 0 -5 -14 -16
-30 -25 -39 -22 -39 -54 0 -76 16 -9 35 -29 41 -45 13 -31 114 -107 142 -107
27 0 57 -19 57 -35 0 -17 -68 -65 -92 -65 -10 0 -28 11 -40 25 -12 14 -27 25
-33 25 -6 0 -34 16 -64 35 -29 19 -64 35 -78 35 -61 0 -87 54 -38 80 14 8 23
18 21 24 -3 6 -10 28 -17 48 -15 47 -10 53 84 109 40 23 83 49 97 59 14 9 42
17 63 18 29 1 44 9 69 37 60 69 149 99 215 74z m2613 -18 c0 -12 -28 -22 -34
-12 -3 5 -3 11 1 15 9 9 33 7 33 -3z m3704 -22 c34 -40 33 -72 -1 -99 -61 -48
-185 1 -169 66 8 32 62 64 108 64 28 0 42 -7 62 -31z m-1874 1 c0 -5 -2 -10
-4 -10 -3 0 -8 5 -11 10 -3 6 -1 10 4 10 6 0 11 -4 11 -10z m-1752 -22 c-4
-12 -48 -20 -48 -8 0 12 13 20 33 20 10 0 17 -5 15 -12z m-6679 -11 c13 -16 5
-27 -20 -27 -21 0 -33 15 -24 30 9 14 31 12 44 -3z m10764 1 c74 -39 60 -112
-26 -134 -17 -4 -26 -12 -23 -19 2 -7 23 -91 46 -186 46 -191 65 -252 78 -257
5 -1 18 -10 28 -18 10 -9 -3 -4 -30 10 -37 20 -47 22 -42 10 4 -10 -3 -25 -18
-39 -20 -19 -31 -21 -68 -15 -25 3 -59 17 -77 29 -29 21 -30 24 -15 36 9 6 14
16 11 21 -11 18 118 21 139 3 8 -6 16 -10 18 -8 3 4 -54 211 -86 314 -13 40
-14 40 -70 45 -45 4 -64 11 -84 32 -40 40 -28 73 34 91 37 11 47 19 48 36 1
12 3 23 5 25 49 38 92 46 132 24z m-8076 -29 c-4 -15 1 -23 20 -32 13 -6 31
-23 39 -39 13 -25 13 -29 -8 -50 l-21 -21 -34 69 c-18 38 -32 74 -32 79 0 6 3
4 6 -2 7 -18 23 -16 23 2 0 8 3 15 6 15 4 0 4 -9 1 -21z m1456 4 c-7 -2 -19
-2 -25 0 -7 3 -2 5 12 5 14 0 19 -2 13 -5z m2597 -3 c0 -5 -7 -10 -16 -10 -8
0 -12 5 -9 10 3 6 10 10 16 10 5 0 9 -4 9 -10z m-6622 -31 c20 -31 6 -59 -28
-59 -33 0 -66 39 -56 65 9 23 68 19 84 -6z m6696 5 c9 -23 8 -24 -12 -24 -26
0 -34 11 -21 27 15 17 26 17 33 -3z m4152 -96 c5 -42 4 -44 -43 -78 -38 -28
-49 -42 -51 -68 -4 -37 -16 -41 -33 -11 -16 31 3 65 45 80 45 16 59 43 46 89
-5 19 -10 51 -10 70 l1 35 20 -37 c10 -21 22 -57 25 -80z m-9796 85 c0 -22
-29 -53 -50 -53 -9 0 -25 7 -36 15 -19 15 -19 15 5 35 29 25 81 27 81 3z
m5720 -32 c0 -12 -20 -25 -27 -18 -7 7 6 27 18 27 5 0 9 -4 9 -9z m-5557 -8
c4 -3 -5 -14 -20 -24 -29 -20 -56 -10 -46 17 5 14 54 20 66 7z m1172 -13 c0
-7 -6 -15 -12 -17 -8 -3 -13 4 -13 17 0 13 5 20 13 18 6 -3 12 -11 12 -18z
m-827 -12 c34 -29 -15 -47 -64 -23 -34 16 -40 25 -27 39 10 9 74 -2 91 -16z
m-283 -8 c0 -15 -31 -37 -40 -28 -9 9 18 49 30 45 5 -2 10 -10 10 -17z m5573
2 c3 -9 -3 -13 -19 -10 -12 1 -24 9 -27 16 -3 9 3 13 19 10 12 -1 24 -9 27
-16z m880 -37 c-13 -12 -28 -24 -34 -26 -12 -5 -217 -142 -224 -149 -8 -9 -77
-40 -89 -40 -28 0 -2 23 115 101 176 118 206 137 229 148 30 13 32 -7 3 -34z
m-805 1 c23 -17 22 -26 -3 -21 -29 6 -41 15 -35 26 8 12 16 11 38 -5z m-5477
-11 c4 -8 13 -15 20 -15 8 0 18 -8 22 -17 4 -10 16 -18 27 -18 24 0 26 -24 4
-38 -11 -7 -28 -5 -57 8 -42 19 -50 29 -32 40 21 13 9 24 -14 13 -36 -16 -60
-4 -46 22 13 24 68 28 76 5z m184 -4 c0 -20 -32 -37 -49 -27 -5 3 -7 15 -4 26
7 27 53 28 53 1z m808 -11 c14 -23 8 -40 -14 -40 -12 0 -34 36 -34 56 0 13 37
1 48 -16z m8532 15 c0 -17 -46 -65 -62 -65 -26 0 -22 15 13 44 29 24 49 33 49
21z m-9260 -33 c0 -14 -23 -32 -42 -32 -21 0 -23 11 -6 28 13 13 48 16 48 4z
m5300 -2 c0 -5 -4 -10 -10 -10 -5 0 -10 5 -10 10 0 6 5 10 10 10 6 0 10 -4 10
-10z m54 -16 c25 -9 19 -24 -9 -24 -24 0 -32 10 -18 23 8 8 8 8 27 1z m-5327
-31 c4 -12 -25 -26 -38 -18 -11 7 12 35 25 31 6 -1 11 -7 13 -13z m514 7 c24
-13 27 -75 3 -84 -30 -11 -50 -6 -83 22 l-34 28 28 22 c30 24 56 28 86 12z
m8616 -18 c3 -21 -24 -43 -43 -35 -21 8 -17 30 8 47 24 17 30 15 35 -12z
m-10536 -24 c33 -24 68 -47 77 -53 9 -5 25 -18 36 -27 11 -10 23 -18 27 -18
13 0 69 -51 69 -63 0 -7 -12 -25 -26 -40 -37 -41 -29 -66 38 -110 47 -31 60
-46 68 -79 10 -35 9 -42 -7 -57 -10 -9 -27 -18 -38 -19 -25 -5 -167 -78 -200
-103 -16 -13 -27 -37 -35 -74 l-11 -55 -27 18 c-47 30 -54 41 -48 75 13 77 25
139 46 234 12 56 20 112 16 125 -3 13 -26 38 -51 57 -25 18 -48 45 -52 59 -7
29 13 140 29 160 16 18 23 16 89 -30z m6809 17 c11 -13 8 -15 -13 -15 -26 0
-42 12 -30 24 11 11 30 7 43 -9z m-5530 -5 c0 -13 -34 -30 -59 -30 -20 0 -28
19 -14 33 10 11 73 8 73 -3z m7787 -20 c-11 -18 -27 -27 -27 -15 0 13 25 43
32 39 4 -3 2 -14 -5 -24z m1833 11 c-11 -22 -29 -35 -36 -28 -9 8 20 47 34 47
9 0 10 -5 2 -19z m-9415 -11 c3 -5 -1 -10 -9 -10 -9 0 -16 5 -16 10 0 6 4 10
9 10 6 0 13 -4 16 -10z m6055 -1 c0 -5 -14 -9 -30 -9 -27 0 -55 -11 -84 -33
-25 -19 -298 -197 -302 -197 -22 0 16 33 124 107 70 48 129 90 132 94 24 31
160 64 160 38z m-642 -16 c2 -8 -6 -13 -22 -13 -26 0 -40 12 -29 24 11 11 46
2 51 -11z m-5551 -10 c3 -7 -10 -15 -32 -19 -40 -7 -50 -2 -41 21 7 19 67 17
73 -2z m213 -14 c0 -5 -7 -9 -15 -9 -9 0 -12 6 -9 15 6 15 24 11 24 -6z m-140
-19 c0 -11 -42 -30 -66 -30 -17 0 -19 26 -1 33 22 10 67 7 67 -3z m9118 -2 c9
-12 82 -235 82 -251 0 -14 -18 -6 -23 11 -3 9 -24 68 -46 131 -23 63 -41 116
-41 118 0 8 19 2 28 -9z m-8898 -17 c0 -6 -4 -13 -10 -16 -5 -3 -10 1 -10 9 0
9 5 16 10 16 6 0 10 -4 10 -9z m1983 -6 c9 -21 -9 -28 -27 -9 -21 20 -20 24 3
24 10 0 21 -7 24 -15z m3996 2 c6 -8 8 -17 4 -20 -10 -11 -51 -8 -58 3 -17 27
33 42 54 17z m3871 -7 c-24 -15 -37 -11 -16 5 11 8 22 12 25 9 3 -3 -1 -9 -9
-14z m-331 -30 c-30 -37 -49 -50 -49 -33 0 10 62 73 72 73 5 0 -6 -18 -23 -40z
m-9663 19 c9 -16 -15 -29 -53 -29 -35 0 -41 8 -21 28 15 15 65 16 74 1z m8113
-26 c5 -21 15 -82 22 -136 14 -111 9 -105 140 -151 35 -11 64 -25 66 -31 5
-16 -60 -55 -90 -55 -23 0 -29 6 -33 30 -4 17 -13 30 -20 30 -25 0 -139 41
-163 59 -21 16 -22 19 -6 34 19 20 56 22 73 5 22 -22 22 -2 2 103 -11 57 -20
114 -20 126 0 36 18 27 29 -14z m1151 22 c0 -16 -27 -32 -37 -22 -3 4 -3 13 0
22 8 20 37 20 37 0z m-9680 -5 c0 -5 -10 -10 -22 -10 -19 0 -20 2 -8 10 19 13
30 13 30 0z m626 -25 c-29 -27 -46 -32 -46 -14 0 16 31 38 54 39 16 0 15 -3
-8 -25z m4904 10 c42 -22 49 -54 16 -82 -49 -42 -119 -42 -170 -2 -31 24 -28
53 8 81 27 22 106 24 146 3z m-5477 -19 c1 -4 -15 -15 -36 -23 -30 -12 -40
-13 -52 -3 -9 7 -13 15 -10 18 2 3 11 0 18 -7 11 -9 20 -7 38 8 24 20 39 23
42 7z m427 8 c0 -6 -42 -43 -50 -44 -3 0 -12 5 -20 10 -13 8 -12 11 5 24 20
15 65 22 65 10z m215 -6 c28 -13 31 -21 12 -36 -26 -22 -61 -24 -74 -3 -11 17
-9 22 9 36 27 18 21 18 53 3z m-147 -24 c12 -4 22 -10 22 -14 0 -11 -48 -30
-75 -30 -31 0 -32 14 -3 34 25 18 25 18 56 10z m2100 -11 c2 -8 -6 -13 -24
-13 -15 0 -25 -3 -21 -6 10 -10 -20 -34 -42 -34 -12 0 -21 -3 -21 -8 0 -14
-42 -34 -52 -24 -15 15 10 55 29 48 22 -9 71 15 77 37 5 21 47 21 54 0z
m-2518 -3 c0 -6 -12 -16 -26 -22 -23 -11 -24 -13 -7 -19 16 -7 16 -8 -3 -8
-34 -1 -36 11 -7 36 31 25 43 28 43 13z m-572 -7 c-10 -2 -26 -2 -35 0 -10 3
-2 5 17 5 19 0 27 -2 18 -5z m-885 -15 c64 -36 74 -72 33 -113 -44 -44 -144
-42 -173 4 -23 37 43 118 100 120 9 1 27 -5 40 -11z m1492 2 c-3 -5 -13 -10
-21 -10 -8 0 -12 5 -9 10 3 6 13 10 21 10 8 0 12 -4 9 -10z m2187 4 c10 -9 -4
-44 -17 -44 -12 0 -25 21 -25 41 0 10 33 13 42 3z m-2697 -28 c19 -8 35 -18
35 -21 0 -10 -72 -37 -79 -29 -3 4 -1 9 5 11 6 2 20 11 30 19 16 13 15 13 -13
-1 -39 -19 -44 -19 -69 -1 -18 14 -18 15 6 25 35 14 45 13 85 -3z m535 5 c0
-5 -14 -14 -31 -20 -38 -13 -39 -13 -39 -3 0 5 12 13 28 19 35 14 42 15 42 4z
m418 -8 c-2 -12 -14 -19 -36 -21 -37 -4 -42 10 -9 26 33 16 49 14 45 -5z
m6134 5 c-17 -8 -26 -8 -34 0 -9 9 -4 12 23 11 32 0 33 -1 11 -11z m3203 -8
c-19 -21 -45 -27 -45 -10 0 11 30 29 49 30 11 0 10 -5 -4 -20z m405 -10 c-6
-11 -18 -20 -27 -20 -14 0 -14 2 2 20 10 11 22 20 27 20 5 0 4 -9 -2 -20z
m-10109 -41 c-32 -26 -18 -38 18 -16 16 9 36 14 45 11 23 -9 20 -26 -4 -19
-11 3 -20 2 -20 -4 0 -22 -39 -20 -83 5 -26 14 -47 28 -47 30 0 3 19 13 43 23
37 17 44 17 57 4 13 -13 12 -17 -9 -34z m6360 41 c27 -15 24 -39 -8 -51 -53
-20 -103 30 -50 51 30 12 35 12 58 0z m-6871 -20 c11 -7 9 -11 -13 -19 -75
-29 -110 -20 -44 11 41 20 39 19 57 8z m280 -5 c0 -8 -4 -15 -10 -15 -5 0 -10
7 -10 15 0 8 5 15 10 15 6 0 10 -7 10 -15z m30 0 c0 -8 -4 -15 -10 -15 -5 0
-10 7 -10 15 0 8 5 15 10 15 6 0 10 -7 10 -15z m68 -31 c4 2 13 -2 19 -10 8
-8 9 -15 3 -19 -6 -3 -10 -1 -10 6 0 8 -5 7 -17 -2 -15 -12 -16 -12 -10 4 6
16 -2 21 -30 18 -7 -1 -13 2 -13 8 0 16 24 18 38 4 8 -7 17 -11 20 -9z m2347
-1 c-11 -7 -28 -13 -39 -13 -22 0 -17 7 16 25 29 15 47 6 23 -12z m6015 0 c2
-2 -12 -20 -32 -40 -35 -34 -37 -35 -67 -22 -39 17 -39 28 2 57 24 17 40 21
62 16 17 -3 32 -8 35 -11z m-8695 -2 c-11 -18 -63 -39 -76 -30 -15 9 -14 11
21 26 31 14 63 16 55 4z m90 -46 c17 -7 15 -10 -17 -18 -21 -6 -38 -15 -38
-20 0 -5 12 -6 26 -3 62 16 84 18 84 8 0 -5 -20 -15 -44 -21 -46 -11 -61 -7
-116 32 l-25 17 30 24 c29 23 31 23 55 7 14 -10 34 -21 45 -26z m2517 23 c-6
-6 -15 -8 -19 -4 -4 4 -1 11 7 16 19 12 27 3 12 -12z m-1995 -16 c9 -39 -9
-45 -68 -25 -50 16 -51 18 -24 21 17 2 33 10 38 17 12 22 47 13 54 -13z m5518
17 c4 -6 5 -12 2 -15 -7 -7 -37 7 -37 17 0 13 27 11 35 -2z m-4830 -11 c27
-12 34 -45 13 -66 -17 -17 -31 -15 -56 8 -26 25 -29 57 -4 63 9 3 18 5 19 6 1
0 14 -4 28 -11z m-900 -8 c-3 -5 -15 -10 -26 -10 -11 0 -17 5 -14 10 3 6 15
10 26 10 11 0 17 -4 14 -10z m10035 -15 c-13 -16 -40 -21 -40 -7 0 10 42 32
49 26 2 -2 -2 -10 -9 -19z m-546 -30 c31 -24 34 -55 5 -73 -12 -7 -18 -16 -15
-19 3 -4 1 -12 -5 -20 -8 -9 -15 -10 -24 -3 -10 8 -15 3 -23 -19 -9 -24 -18
-31 -49 -36 -51 -8 -65 -11 -85 -20 -15 -6 -18 -2 -18 20 0 15 -8 34 -17 41
-15 10 -16 15 -5 25 22 23 13 36 -35 54 -54 20 -156 75 -150 81 2 2 28 -9 58
-25 111 -59 158 -75 183 -61 18 9 28 9 46 0 20 -11 21 -10 11 9 -9 16 -7 23
12 38 12 10 21 25 19 35 -3 14 1 15 32 4 19 -6 46 -21 60 -31z m-11110 19 c3
-9 6 -35 6 -58 0 -52 7 -60 34 -43 43 28 81 35 113 22 51 -22 53 -69 3 -98
-42 -25 -93 -22 -130 10 -24 20 -34 23 -40 13 -4 -7 -25 -83 -45 -169 -29
-126 -42 -160 -61 -178 -30 -27 -78 -30 -131 -8 -26 11 -77 15 -192 16 l-156
1 92 14 c51 7 107 20 125 30 72 36 197 120 206 139 8 14 11 16 12 5 0 -10 6
-6 16 10 14 24 15 22 9 -35 -8 -85 -7 -85 -17 -79 -4 3 -8 -2 -8 -10 0 -14 18
-32 25 -24 4 4 34 164 45 238 14 105 31 169 51 194 24 30 34 32 43 10z m7285
2 c17 -20 -5 -31 -24 -12 -8 8 -15 17 -15 20 0 12 28 6 39 -8z m2481 6 c0 -18
-56 -57 -77 -54 -34 5 -28 17 20 40 46 23 57 26 57 14z m-8100 -23 c0 -5 -9
-9 -20 -9 -11 0 -20 6 -20 14 0 9 7 12 20 9 11 -3 20 -9 20 -14z m57 15 c-3
-3 -12 -4 -19 -1 -8 3 -5 6 6 6 11 1 17 -2 13 -5z m6749 -30 c-21 -19 -40 -34
-42 -31 -5 5 63 67 73 67 4 0 -10 -16 -31 -36z m2469 15 c5 -5 -5 -4 -23 2
-17 6 -32 13 -32 16 0 7 43 -8 55 -18z m-9170 1 c3 -5 -3 -10 -14 -10 -12 0
-21 5 -21 10 0 6 6 10 14 10 8 0 18 -4 21 -10z m1915 -21 c0 -7 29 -6 -325
-14 -216 -6 -297 -4 -290 3 6 6 53 13 105 15 148 5 510 3 510 -4z m-2282 -5
c32 -9 27 -21 -14 -34 -42 -14 -59 -5 -19 10 15 6 26 13 23 16 -3 2 -17 0 -32
-6 -42 -16 -66 -12 -36 5 28 16 44 18 78 9z m5806 -14 c4 -4 7 -13 5 -18 -2
-5 -20 1 -39 15 l-35 25 30 -7 c17 -3 34 -10 39 -15z m-5740 -25 c22 -17 22
-17 -23 -40 -19 -9 -36 -13 -40 -8 -3 5 -15 13 -26 17 -18 7 -15 10 20 26 49
23 46 22 69 5z m8219 3 c12 -7 24 -14 26 -15 6 -3 -53 -52 -71 -58 -9 -3 -28
1 -41 10 -14 9 -32 13 -43 9 -10 -4 3 10 31 30 55 40 65 42 98 24z m-1269 -10
c-50 -85 -55 -90 -84 -85 -19 4 -35 0 -49 -12 -31 -27 -26 -34 19 -29 40 3 56
-7 23 -14 -16 -4 -83 9 -91 17 -12 11 47 48 82 53 34 3 46 11 68 43 26 36 49
55 32 27z m-9096 -38 c9 -16 10 -26 1 -42 -11 -21 -12 -21 -22 -2 -5 10 -21
28 -35 40 -14 11 -22 26 -18 32 9 15 58 -3 74 -28z m7807 31 c10 -18 -15 -22
-42 -7 l-28 15 32 1 c17 0 34 -4 38 -9z m4813 -18 c-15 -15 -31 -24 -34 -20
-10 10 26 47 45 47 11 0 8 -7 -11 -27z m-8316 -23 c10 -22 19 -76 23 -147 l7
-113 -32 -17 c-34 -19 -279 -162 -420 -246 -192 -113 -172 -107 -322 -108 -73
0 -192 -4 -263 -8 -138 -8 -138 -8 -253 -83 -15 -10 -36 -22 -47 -27 -11 -5
-57 -32 -103 -60 -45 -28 -97 -54 -115 -57 l-32 -6 33 21 c18 12 35 21 38 21
10 0 228 132 239 144 6 6 33 23 61 38 61 33 137 45 344 53 132 6 160 10 193
28 22 12 48 26 58 32 11 5 19 13 19 17 0 5 4 8 10 8 13 0 114 62 118 72 2 4 8
8 14 8 20 0 307 182 313 199 3 9 9 61 12 116 5 81 3 103 -9 112 -21 18 -600 3
-606 -15 -2 -6 -7 -12 -12 -12 -4 0 -41 -20 -81 -45 -76 -47 -94 -52 -196 -58
-55 -3 -60 -2 -43 10 11 8 48 16 82 19 71 5 109 17 153 49 17 12 41 26 55 30
13 4 37 17 52 28 24 18 49 21 240 27 117 4 267 7 333 6 l120 -1 17 -35z
m-2092 20 c13 -8 13 -9 0 -13 -8 -2 -31 -9 -51 -16 -44 -14 -49 -14 -49 -1 0
11 55 39 75 39 6 1 17 -3 25 -9z m5528 -33 c2 -11 -3 -17 -17 -17 -25 0 -38
19 -20 31 19 12 33 6 37 -14z m-5488 3 c8 -5 12 -10 10 -12 -10 -8 -61 -28
-70 -28 -20 0 -9 31 13 40 29 11 29 11 47 0z m7477 4 c-3 -3 -12 -4 -19 -1 -8
3 -5 6 6 6 11 1 17 -2 13 -5z m116 -1 c-13 -2 -33 -2 -45 0 -13 2 -3 4 22 4
25 0 35 -2 23 -4z m-453 -13 l-155 -5 2 -55 c2 -30 10 -72 20 -93 16 -37 16
-39 -4 -59 -13 -12 -28 -18 -38 -15 -14 6 -14 9 -1 29 11 18 12 38 5 88 -4 36
-6 73 -3 83 3 9 0 17 -6 17 -15 0 -120 -82 -120 -94 0 -18 32 -45 46 -39 10 4
14 -3 14 -22 0 -39 -29 -29 -57 20 -19 34 -27 40 -50 37 -22 -2 -25 -1 -13 7
8 6 23 11 32 11 10 0 35 15 55 33 78 69 71 67 258 65 l170 -2 -155 -6z m830
-10 c0 -5 -6 -10 -14 -10 -7 0 -16 -9 -19 -20 -6 -22 -15 -25 -37 -10 -13 9
-13 11 0 20 12 8 11 10 -8 10 -13 0 -20 4 -17 10 3 6 26 10 51 10 24 0 44 -4
44 -10z m-6068 -85 c-2 -47 -9 -89 -18 -102 -7 -12 -51 -42 -96 -68 -100 -55
-117 -66 -139 -85 -10 -8 -44 -28 -76 -44 -32 -16 -75 -40 -96 -53 -112 -70
-91 -66 -357 -75 -134 -5 -249 -7 -255 -5 -5 2 12 19 39 38 90 62 85 54 98
171 9 86 15 109 28 113 10 3 25 14 35 25 11 12 31 20 51 20 41 0 118 35 209
94 15 10 41 22 57 26 l28 9 -37 -41 c-44 -47 -49 -51 -85 -79 -19 -14 -28 -30
-28 -49 0 -24 6 -30 35 -40 26 -9 44 -9 70 0 35 11 61 41 48 54 -4 4 11 4 32
0 69 -11 165 34 165 77 0 10 -12 31 -26 48 -19 23 -22 32 -12 36 15 5 170 12
268 11 l65 -1 -3 -80z m3516 78 c-14 -4 -16 -8 -8 -24 12 -21 -2 -25 -35 -12
-15 5 -15 8 6 24 13 10 31 18 39 18 11 -1 10 -3 -2 -6z m-3187 -61 c48 -30
373 -218 417 -241 16 -8 22 -16 14 -19 -7 -2 -34 9 -60 24 -26 16 -72 41 -102
57 -30 15 -73 39 -95 52 -97 59 -95 58 -115 40 -12 -11 -26 -14 -39 -10 -27 8
-17 25 15 25 33 0 30 15 -5 30 -25 10 -34 9 -53 -4 -24 -17 -58 -22 -58 -8 0
4 14 13 30 19 17 6 30 16 30 21 0 6 -13 15 -30 21 -16 5 -30 12 -30 15 0 15
40 3 81 -22z m4431 3 c33 -28 25 -34 -12 -8 -13 10 -43 20 -65 24 l-40 6 44 2
c33 1 50 -5 73 -24z m1749 9 c20 -18 14 -27 -29 -51 -41 -24 -82 -10 -82 29 0
36 78 52 111 22z m-9436 -24 c4 -16 17 -45 30 -65 17 -24 20 -35 11 -35 -21 0
-80 44 -93 70 -10 20 -9 26 9 42 29 25 35 23 43 -12z m7427 23 c-51 -2 -132
-2 -180 0 -48 1 -6 3 93 3 99 0 138 -2 87 -3z m-4908 -13 c33 -12 33 -37 2
-51 -53 -24 -107 22 -58 50 22 13 25 13 56 1z m3851 -10 c0 -9 -11 -16 -27
-18 -27 -3 -38 14 -21 32 12 12 48 2 48 -14z m3389 -6 c18 -18 21 -34 6 -34
-5 0 -10 7 -10 15 0 7 -8 19 -17 24 -10 6 -13 11 -6 11 6 0 19 -7 27 -16z
m395 -8 c31 -14 70 -29 86 -34 38 -11 42 -33 13 -64 -32 -33 -83 -68 -100 -68
-8 0 -41 19 -74 42 -48 34 -67 42 -101 41 -27 -1 -46 4 -55 14 -19 24 26 56
67 49 25 -5 36 -1 55 19 29 31 39 31 109 1z m-3179 -1 c0 -7 8 -19 18 -24 13
-8 14 -10 2 -11 -24 0 -74 37 -58 43 24 10 38 7 38 -8z m1104 -6 c-3 -6 2 -19
12 -30 20 -23 12 -26 -10 -3 -17 17 -22 59 -6 49 6 -4 8 -11 4 -16z m-2444 -3
c0 -3 -4 -8 -10 -11 -5 -3 -10 -1 -10 4 0 6 5 11 10 11 6 0 10 -2 10 -4z
m2574 -37 c-11 -13 -29 -19 -53 -18 -28 2 -30 3 -10 6 15 2 37 15 50 29 27 29
40 13 13 -17z m-1910 14 c10 -26 -10 -39 -39 -23 -19 10 -22 16 -14 27 16 18
46 16 53 -4z m-6339 -36 c34 -23 72 -51 86 -62 33 -27 80 -90 73 -98 -11 -11
-55 16 -50 30 4 8 1 11 -5 7 -6 -3 -37 8 -70 26 -39 20 -66 29 -80 25 -13 -5
-31 2 -55 20 -46 35 -37 42 18 15 l43 -22 -30 25 c-27 22 -28 27 -17 51 6 14
15 26 19 26 5 0 35 -19 68 -43z m9515 21 c0 -16 -3 -19 -11 -11 -6 6 -8 16 -5
22 11 17 16 13 16 -11z m1637 10 c18 -7 33 -16 33 -20 0 -4 6 -8 14 -8 24 0
24 -34 -1 -61 -21 -23 -28 -25 -73 -19 -33 4 -57 14 -70 28 -12 12 -25 22 -30
22 -5 0 -7 7 -4 15 4 8 10 12 15 9 5 -3 9 -1 9 5 0 10 47 40 64 41 5 0 25 -5
43 -12z m-11666 -55 c-5 -23 -4 -40 0 -37 19 11 20 -53 3 -137 -12 -61 -22
-89 -32 -89 -8 0 -25 -9 -39 -19 -13 -11 -45 -23 -71 -27 -26 -3 -53 -11 -60
-17 -10 -8 -12 -7 -10 4 3 13 -2 14 -44 2 -12 -4 -18 0 -18 11 0 13 12 16 66
16 36 0 73 4 83 9 37 20 79 64 74 78 -4 10 -10 8 -25 -9 l-20 -23 8 30 c4 16
13 36 21 43 14 14 15 23 18 112 2 69 14 108 26 89 7 -11 9 -10 9 6 0 12 3 15
9 10 6 -6 6 -28 2 -52z m3686 25 c-3 -8 -6 -5 -6 6 -1 11 2 17 5 13 3 -3 4
-12 1 -19z m3776 3 c17 -6 17 -8 -5 -18 -24 -11 -61 -3 -73 16 -7 13 49 14 78
2z m482 -4 c28 -2 -35 -4 -140 -5 -104 -1 -195 2 -202 6 -10 6 224 6 342 -1z
m-4195 -7 c0 -5 -7 -10 -15 -10 -8 0 -15 5 -15 10 0 6 7 10 15 10 8 0 15 -4
15 -10z m3024 -7 c9 -24 -9 -39 -29 -23 -8 7 -15 19 -15 26 0 20 37 17 44 -3z
m-2824 -23 c0 -21 -24 -27 -49 -11 -19 12 -4 31 25 31 17 0 24 -5 24 -20z
m-120 -6 c0 -9 -5 -14 -12 -12 -18 6 -21 28 -4 28 9 0 16 -7 16 -16z m-3633
-26 c-3 -7 -5 -2 -5 12 0 14 2 19 5 13 2 -7 2 -19 0 -25z m209 1 c30 -17 74
-49 98 -71 43 -40 44 -42 29 -65 -19 -29 -12 -39 16 -23 14 7 21 7 21 0 0 -5
-6 -10 -13 -10 -8 0 -14 -7 -14 -15 0 -8 5 -15 10 -15 6 0 8 -2 5 -5 -3 -3
-22 4 -42 15 -19 12 -41 20 -48 18 -8 -3 0 -11 17 -20 62 -32 420 -281 432
-301 14 -22 70 -47 105 -47 24 0 29 -3 18 -10 -21 -13 -81 -2 -105 20 -11 9
-103 73 -205 142 -102 68 -213 144 -248 169 l-64 44 -49 -28 c-51 -28 -78 -33
-94 -18 -6 5 -19 5 -30 1 -18 -6 -17 -8 12 -23 36 -19 54 -41 26 -30 -10 3
-24 11 -32 17 -8 6 -62 12 -120 13 -159 3 -148 2 -131 13 8 5 38 17 65 25 91
28 179 110 187 175 2 19 13 29 48 42 25 9 47 17 49 17 2 1 28 -13 57 -30z
m6304 7 c0 -20 -25 -37 -44 -30 -18 7 -18 7 -10 28 8 20 54 21 54 2z m3748 4
c9 -5 51 -23 94 -40 42 -17 79 -39 83 -48 15 -39 -76 -107 -130 -97 -16 3 -31
9 -35 13 -3 4 -24 20 -48 36 -40 28 -46 29 -85 19 -29 -8 -46 -8 -54 -1 -20
16 -17 22 33 58 25 19 40 36 35 38 -6 2 -8 8 -5 14 4 6 9 6 14 -3 6 -9 12 -9
25 4 18 19 47 22 73 7z m-3101 -16 c2 -6 -3 -14 -11 -17 -19 -7 -76 11 -76 25
0 13 83 6 87 -8z m-3457 -2 c0 -13 -12 -22 -22 -16 -10 6 -1 24 13 24 5 0 9
-4 9 -8z m128 -9 c-4 -20 -27 -27 -47 -14 -19 12 -4 31 25 31 19 0 25 -5 22
-17z m5180 11 c18 -5 22 -13 20 -33 -4 -38 -69 -67 -109 -50 -35 14 -37 32 -4
64 24 25 50 30 93 19z m-8669 -36 c27 -18 68 -44 91 -58 23 -14 50 -32 60 -40
10 -8 48 -37 85 -63 37 -27 64 -51 61 -54 -6 -6 -365 228 -366 240 0 14 21 6
69 -25z m7313 -4 c26 -13 57 -54 41 -54 -4 0 -20 12 -36 28 -28 27 -30 27
-160 27 -73 0 -140 5 -149 10 -28 17 271 6 304 -11z m637 1 c14 -13 14 -15 -2
-15 -9 0 -17 4 -17 9 0 17 -39 -1 -55 -25 -14 -22 -38 -34 -33 -16 4 13 -13
52 -23 52 -5 0 -15 -11 -21 -25 -13 -30 -28 -33 -28 -6 0 21 15 36 45 44 34
10 118 -2 134 -18z m-8549 -32 c-11 -17 -11 -17 -6 0 3 10 7 26 7 35 1 15 2
15 6 0 2 -10 -1 -25 -7 -35z m6690 27 c0 -15 -7 -20 -25 -20 -24 0 -34 18 -18
33 15 15 43 7 43 -13z m-2985 -26 c-16 -14 -43 -32 -60 -41 -16 -9 -61 -37
-100 -63 -153 -103 -368 -230 -371 -219 0 2 -8 -2 -17 -9 -9 -8 -21 -11 -26
-7 -6 3 20 22 57 42 37 19 98 55 135 79 37 24 72 44 77 44 6 0 10 4 10 8 0 4
19 18 43 30 23 13 89 54 147 92 104 68 164 94 105 44z m462 11 c3 -9 3 -18 1
-21 -8 -8 -58 15 -58 26 0 16 50 12 57 -5z m3173 -26 c0 -4 -7 -9 -15 -13 -18
-7 -85 20 -85 35 0 5 4 8 9 4 5 -3 12 -1 16 4 6 11 75 -17 75 -30z m1590 31
c0 -5 -6 -10 -14 -10 -8 0 -18 5 -21 10 -3 6 3 10 14 10 12 0 21 -4 21 -10z
m-4900 -16 c0 -8 -5 -12 -10 -9 -6 4 -8 11 -5 16 9 14 15 11 15 -7z m-259 -47
c-18 -18 -25 1 -11 30 l14 28 4 -24 c2 -13 -1 -28 -7 -34z m5369 34 c0 -46
-80 -71 -88 -28 -5 28 17 47 54 47 27 0 34 -4 34 -19z m211 6 c52 -18 84 -41
75 -55 -10 -16 -36 -15 -78 2 -40 17 -63 41 -53 56 8 13 12 13 56 -3z m-9207
-39 c19 -13 63 -9 75 6 9 11 9 15 -1 19 -8 4 -7 6 5 6 50 3 -17 -66 -92 -93
-29 -10 -54 -16 -56 -14 -3 2 4 29 14 58 16 45 20 50 24 29 4 -22 5 -21 7 6 2
23 4 25 7 10 3 -11 10 -23 17 -27z m6470 33 c7 -10 -3 -41 -13 -41 -17 1 -33
20 -28 34 7 17 32 22 41 7z m-5849 -11 c-3 -5 -12 -10 -18 -10 -7 0 -6 4 3 10
19 12 23 12 15 0z m3475 -4 c0 -19 -14 -28 -34 -20 -25 10 -19 34 9 34 15 0
25 -6 25 -14z m4123 -16 c53 -20 46 -33 -15 -28 -45 5 -54 2 -75 -20 -20 -22
-23 -23 -23 -6 0 10 4 24 8 29 9 13 56 44 62 42 3 -1 22 -9 43 -17z m-4513 -5
c0 -8 -2 -15 -4 -15 -2 0 -6 7 -10 15 -3 8 -1 15 4 15 6 0 10 -7 10 -15z
m-120 -15 c0 -4 -13 -13 -30 -19 -23 -8 -30 -7 -30 3 0 7 10 18 23 23 23 11
37 8 37 -7z m-3909 -10 c50 -22 25 -27 -34 -6 -26 9 -74 12 -145 10 -71 -3
-100 -1 -87 5 11 5 66 10 121 10 81 1 111 -3 145 -19z m6717 3 c-2 -10 -13
-19 -26 -21 -24 -4 -29 7 -10 26 18 18 40 15 36 -5z m669 -4 c7 -6 13 -16 13
-21 0 -16 -53 1 -75 24 l-20 20 34 -6 c19 -3 40 -11 48 -17z m1640 15 c-3 -3
-12 -4 -19 -1 -8 3 -5 6 6 6 11 1 17 -2 13 -5z m704 -4 c27 -15 24 -34 -12
-64 -39 -33 -83 -34 -103 -3 -18 26 -11 64 13 70 31 9 82 7 102 -3z m-5214
-16 c5 -15 -25 -26 -48 -19 -11 4 -19 13 -19 21 0 18 61 16 67 -2z m3058 -9
c39 -32 14 -32 -33 0 -28 19 -32 25 -17 25 11 0 34 -11 50 -25z m2930 11 c71
-20 152 -62 165 -86 15 -28 -2 -55 -50 -80 -47 -24 -93 -26 -114 -5 -8 8 -18
15 -22 15 -4 0 -19 10 -32 23 -20 18 -35 22 -90 22 -93 0 -95 19 -5 79 75 51
77 51 148 32z m-6460 -16 c-3 -5 -14 -10 -23 -10 -15 0 -15 2 -2 10 20 13 33
13 25 0z m4548 -32 c-25 -28 -33 -21 -16 13 11 23 18 28 24 18 5 -8 2 -20 -8
-31z m-4694 11 c31 -29 23 -42 -40 -58 -30 -8 -58 -20 -64 -27 -16 -19 -460
-295 -499 -310 -8 -3 -16 -15 -19 -26 -3 -11 -10 -17 -16 -14 -18 11 9 54 53
82 23 15 60 40 83 56 23 15 44 28 47 28 3 0 34 20 69 45 36 25 67 45 71 45 6
0 104 60 148 91 15 10 35 19 45 20 11 0 13 3 6 6 -40 16 19 72 88 82 3 1 15
-8 28 -20z m221 12 c0 -12 -20 -25 -27 -18 -7 7 6 27 18 27 5 0 9 -4 9 -9z
m4400 -10 c0 -18 -33 -35 -44 -23 -7 6 23 42 36 42 4 0 8 -8 8 -19z m-3941 0
c19 -12 4 -31 -25 -31 -26 0 -31 9 -12 28 14 14 19 15 37 3z m2048 -28 c-3 -3
-11 -2 -17 2 -8 5 -7 11 2 22 12 15 13 14 16 -1 2 -10 1 -20 -1 -23z m656 10
c4 -2 7 -13 7 -24 0 -10 -3 -19 -7 -19 -18 0 -73 41 -68 50 6 9 47 5 68 -7z
m1597 -3 c0 -5 -4 -10 -10 -10 -5 0 -10 5 -10 10 0 6 5 10 10 10 6 0 10 -4 10
-10z m-8216 -21 c-31 -12 -39 -10 -19 5 11 8 24 12 29 8 5 -3 1 -9 -10 -13z
m171 11 c3 -5 1 -10 -4 -10 -6 0 -11 5 -11 10 0 6 2 10 4 10 3 0 8 -4 11 -10z
m7208 -14 c15 -16 107 -28 107 -14 0 4 11 8 25 8 30 0 33 -16 4 -23 -12 -3
-18 -10 -14 -16 9 -16 -4 -50 -24 -61 -25 -13 -92 7 -110 32 -11 16 -23 19
-67 16 -38 -2 -55 1 -59 10 -7 20 -7 21 14 15 11 -3 28 5 44 21 29 29 58 33
80 12z m-8536 -18 c18 -13 33 -27 33 -31 0 -4 -17 4 -37 20 -21 15 -40 28 -42
30 -2 2 0 3 4 3 5 0 24 -10 42 -22z m7055 -10 c-10 -10 -15 -10 -22 2 -6 9 -5
17 3 22 18 11 33 -10 19 -24z m-2551 3 c32 -26 14 -45 -54 -61 -29 -7 -59 -18
-67 -25 -18 -15 -378 -239 -400 -248 -8 -4 -25 -14 -37 -23 -19 -14 -23 -14
-23 -2 0 19 32 47 98 87 30 18 59 36 65 42 25 20 144 97 186 120 24 13 54 30
67 37 13 7 24 19 24 26 0 13 38 50 61 59 28 11 57 7 80 -12z m659 5 c0 -19
-31 -30 -41 -14 -4 6 -5 16 -3 20 9 14 44 9 44 -6z m4846 -18 c29 -31 7 -53
-52 -53 -48 0 -49 1 -49 30 0 52 62 66 101 23z m-1636 13 c0 -5 -7 -12 -16
-15 -11 -4 -15 -14 -12 -31 4 -21 3 -23 -13 -15 -28 16 -32 30 -13 51 17 19
54 26 54 10z m-715 -17 c36 -14 110 -82 101 -91 -7 -7 -69 28 -104 58 -18 16
-37 29 -42 29 -6 0 -10 5 -10 10 0 14 11 13 55 -6z m-6405 -4 c0 -5 -2 -10 -4
-10 -3 0 -8 5 -11 10 -3 6 -1 10 4 10 6 0 11 -4 11 -10z m3965 -10 c3 -5 1
-10 -4 -10 -6 0 -11 5 -11 10 0 6 2 10 4 10 3 0 8 -4 11 -10z m1765 -5 c0 -8
-7 -15 -15 -15 -16 0 -20 12 -8 23 11 12 23 8 23 -8z m1274 9 c20 -8 21 -38 2
-54 -34 -28 -94 11 -67 44 14 17 38 20 65 10z m736 -4 c0 -5 -9 -10 -21 -10
-11 0 -17 5 -14 10 3 6 13 10 21 10 8 0 14 -4 14 -10z m-7904 -38 c309 -202
297 -191 247 -207 -17 -4 -22 -3 -18 7 3 8 -18 27 -52 47 -65 39 -182 127
-201 150 -10 12 -15 13 -18 4 -7 -15 -64 -17 -64 -3 0 11 36 29 55 29 6 -1 28
-13 51 -27z m9702 12 c32 -9 83 -30 115 -47 48 -25 57 -34 57 -57 0 -28 -26
-56 -72 -80 -23 -11 -34 -11 -68 0 -22 7 -45 19 -51 26 -6 7 -30 22 -53 34
-40 19 -45 19 -80 5 -47 -20 -79 -6 -74 33 2 20 17 34 68 64 75 43 82 44 158
22z m-6177 -10 c20 -25 -2 -48 -57 -59 -34 -7 -88 -35 -174 -91 -69 -44 -164
-104 -211 -132 -65 -39 -91 -61 -103 -87 -9 -19 -21 -35 -26 -35 -6 0 -10 -9
-10 -20 0 -10 -10 -25 -22 -31 -13 -7 -25 -15 -28 -18 -11 -13 -99 -69 -118
-75 -36 -12 -34 21 3 38 19 9 47 27 62 39 15 12 45 34 66 47 25 17 40 36 47
61 5 19 20 45 32 56 30 28 156 113 167 113 4 0 16 9 25 19 10 11 41 31 69 46
61 31 98 58 150 108 31 29 46 37 76 37 23 0 44 -6 52 -16z m707 -12 c3 -9 -2
-13 -14 -10 -9 1 -19 9 -22 16 -3 9 2 13 14 10 9 -1 19 -9 22 -16z m-4943 -23
c0 -7 -8 -15 -17 -17 -18 -3 -25 18 -11 32 10 10 28 1 28 -15z m6516 -2 c-13
-13 -26 -3 -16 12 3 6 11 8 17 5 6 -4 6 -10 -1 -17z m2970 -3 c9 -11 9 -21 1
-39 -22 -48 -118 -26 -110 25 5 38 81 47 109 14z m-2301 6 c0 -5 -2 -10 -4
-10 -3 0 -8 5 -11 10 -3 6 -1 10 4 10 6 0 11 -4 11 -10z m-2836 -25 c11 -8 16
-21 12 -30 -7 -20 -66 -45 -103 -45 -26 0 -72 -25 -298 -166 -33 -20 -70 -50
-83 -66 -13 -15 -30 -28 -38 -28 -24 0 -16 39 14 67 24 23 168 123 177 123 10
0 174 107 203 131 36 32 84 38 116 14z m2091 -25 c-3 -5 -11 -10 -16 -10 -6 0
-7 5 -4 10 3 6 11 10 16 10 6 0 7 -4 4 -10z m-5696 -32 c1 10 4 10 15 0 12
-11 11 -14 -3 -19 -17 -7 -31 7 -30 31 0 10 3 8 9 -5 5 -11 9 -14 9 -7z m2481
-6 c0 -15 -14 -17 -146 -19 -158 -2 -170 -5 -271 -69 -28 -18 -71 -43 -94 -56
-23 -13 -49 -27 -58 -33 -116 -72 -126 -75 -222 -76 -130 -1 -141 3 -29 11 83
5 103 11 155 40 33 19 76 42 95 52 19 10 55 32 80 48 25 16 52 33 60 36 8 4
35 21 59 38 46 33 92 40 294 44 67 2 77 0 77 -16z m3878 -6 c3 -13 -1 -17 -14
-14 -11 2 -20 11 -22 22 -3 13 1 17 14 14 11 -2 20 -11 22 -22z m928 -4 c20
-16 44 -52 44 -67 0 -10 -68 -35 -96 -35 -30 0 -114 -63 -114 -85 0 -20 -49
-55 -78 -55 -33 0 -72 36 -72 66 0 33 35 61 83 68 49 8 59 15 110 79 31 38 44
47 70 47 18 0 42 -8 53 -18z m897 -10 c15 -15 27 -36 27 -45 0 -23 85 -59 149
-63 53 -3 91 -23 91 -50 0 -25 -23 -64 -42 -70 -38 -12 -82 5 -106 40 -13 19
-36 39 -51 44 -15 5 -35 18 -46 28 -14 14 -35 19 -96 20 -58 1 -79 -3 -79 -12
0 -7 -12 -27 -27 -44 -22 -27 -25 -35 -15 -51 7 -10 12 -25 12 -33 0 -19 -52
-36 -114 -36 -28 -1 -62 -7 -76 -15 -61 -35 -119 -1 -85 51 9 14 25 24 40 24
13 0 30 7 39 15 8 8 19 15 24 15 6 0 12 6 15 14 3 8 21 19 41 26 19 6 38 19
41 29 9 29 43 54 72 53 21 0 33 8 48 31 39 61 96 73 138 29z m440 -14 c6 -19
-14 -57 -33 -63 -44 -14 -85 27 -62 62 20 32 84 33 95 1z m-8728 11 c9 -13 7
-15 -28 -23 -26 -6 -27 -5 -17 14 12 22 35 27 45 9z m3785 -18 c0 -19 -45 -45
-61 -36 -16 10 -10 33 12 49 25 17 49 11 49 -13z m-4465 -37 c0 -12 -8 -20
-22 -22 -26 -4 -28 1 -12 29 13 24 34 20 34 -7z m935 -14 c13 -8 13 -11 -2
-26 -19 -19 -68 -12 -68 10 0 24 43 33 70 16z m2090 0 c0 -5 -4 -10 -10 -10
-5 0 -10 5 -10 10 0 6 5 10 10 10 6 0 10 -4 10 -10z m-1965 -19 c-22 -4 -51
-11 -65 -15 l-25 -7 25 15 c14 9 43 15 65 14 l40 -1 -40 -6z m3508 -5 c3 -12
-30 -32 -39 -24 -11 12 5 40 21 36 9 -2 17 -7 18 -12z m-4643 -6 c-8 -5 -19
-10 -25 -10 -5 0 -3 5 5 10 8 5 20 10 25 10 6 0 3 -5 -5 -10z m-40 -15 c0 -2
-10 -9 -22 -15 -22 -11 -22 -10 -4 4 21 17 26 19 26 11z m580 -15 c0 -5 -7
-10 -15 -10 -8 0 -15 5 -15 10 0 6 7 10 15 10 8 0 15 -4 15 -10z m640 3 c0
-16 -35 -43 -56 -43 -31 0 -41 20 -19 37 19 13 75 18 75 6z m-940 -13 c0 -12
-28 -25 -36 -17 -9 9 6 27 22 27 8 0 14 -5 14 -10z m4520 -19 c0 -14 -28 -33
-39 -27 -16 10 -1 36 20 36 10 0 19 -4 19 -9z m-3120 -10 c24 -7 -121 -19
-270 -22 -93 -2 -99 -1 -70 16 19 11 62 14 170 14 80 -1 156 -4 170 -8z
m-1639 -34 c-8 -8 -11 -7 -11 4 0 20 13 34 18 19 3 -7 -1 -17 -7 -23z m6893
27 c9 -3 16 -17 16 -31 0 -21 -4 -24 -32 -21 -23 2 -34 9 -36 22 -6 27 20 42
52 30z m808 -51 c29 -26 23 -70 -12 -88 -38 -20 -52 -19 -84 6 -34 26 -36 71
-3 87 33 16 78 14 99 -5z m-4067 -13 c0 -7 -9 -18 -20 -24 -11 -6 -22 -13 -25
-16 -11 -12 -60 -40 -70 -40 -5 0 -19 -8 -29 -17 -10 -10 -35 -29 -55 -43 -20
-14 -51 -37 -69 -52 -18 -15 -37 -28 -44 -28 -6 0 -42 -20 -79 -45 -36 -25
-70 -45 -75 -45 -4 0 -20 -11 -36 -23 -45 -38 -118 -77 -142 -77 -33 0 -19 14
77 77 48 31 90 61 94 67 4 6 10 7 14 4 3 -4 16 2 28 13 11 12 35 28 51 36 17
9 32 20 35 24 6 8 68 45 120 71 14 7 30 18 35 25 14 17 102 63 121 63 8 0 13
4 9 9 -6 11 35 43 50 38 5 -2 10 -10 10 -17z m-2751 -6 c12 -12 13 -20 5 -35
-9 -17 -13 -18 -27 -7 -23 17 -32 30 -32 46 0 17 36 15 54 -4z m1523 10 c-3
-3 -12 -4 -19 -1 -8 3 -5 6 6 6 11 1 17 -2 13 -5z m798 -4 c-6 -9 -72 -56
-155 -110 -21 -14 -70 -46 -108 -72 -38 -27 -75 -48 -80 -48 -6 0 -20 -9 -30
-20 -11 -12 -25 -18 -35 -14 -14 5 -12 10 11 29 15 12 38 26 50 30 13 4 32 14
42 23 17 16 65 50 160 112 25 16 51 30 58 30 6 0 12 5 12 10 0 6 6 10 14 10 7
0 19 7 26 15 14 16 45 21 35 5z m235 5 c0 -2 -55 -40 -122 -84 -68 -44 -128
-85 -135 -91 -7 -5 -15 -10 -19 -10 -4 0 -22 -11 -40 -25 -18 -14 -35 -25 -38
-25 -3 0 -27 -15 -53 -32 -55 -37 -158 -88 -179 -88 -23 0 -29 -49 -8 -65 11
-7 16 -16 12 -20 -3 -4 -17 4 -29 17 -13 12 -36 28 -51 33 -38 14 -39 29 -3
33 17 2 37 6 45 9 8 3 21 5 28 4 6 -1 12 5 12 13 0 9 6 13 13 10 7 -2 22 4 32
16 10 11 24 20 31 20 7 0 19 6 26 13 11 12 93 63 191 121 18 10 61 37 97 60
36 23 79 48 95 55 17 7 41 19 55 27 26 14 40 17 40 9z m3331 -18 c29 -15 33
-31 14 -47 -28 -24 -79 19 -60 50 8 13 18 13 46 -3z m-5391 -6 c8 -1 2 -8 -15
-17 -36 -19 -155 -32 -320 -35 l-120 -1 0 23 c0 23 4 24 80 29 66 4 319 5 375
1z m400 0 c26 -8 -122 -21 -234 -21 -59 0 -68 13 -16 23 40 7 223 6 250 -2z
m-1183 -23 c-3 -8 -6 -5 -6 6 -1 11 2 17 5 13 3 -3 4 -12 1 -19z m7827 7 c-7
-17 -7 -17 -28 -9 -24 9 -19 24 9 24 18 0 23 -4 19 -15z m486 -1 c0 -9 -7 -14
-17 -12 -25 5 -28 28 -4 28 12 0 21 -6 21 -16z m1105 10 c22 -9 46 -59 38 -81
-19 -55 -78 -70 -127 -32 -31 24 -35 72 -9 101 16 18 66 24 98 12z m-940 -40
c22 -24 23 -29 11 -58 -31 -76 -122 -45 -151 53 -4 13 -3 21 1 19 5 -3 18 -2
29 3 42 16 85 10 110 -17z m-9117 4 c7 -7 12 -18 12 -25 0 -14 -50 -43 -74
-43 -21 0 -46 28 -40 44 11 30 80 46 102 24z m1506 -4 c20 -20 20 -33 -1 -56
-20 -22 -12 -33 14 -19 22 11 232 35 308 34 28 0 112 -4 189 -8 186 -11 156
-24 -82 -36 -103 -5 -232 -13 -287 -18 -72 -6 -102 -5 -107 3 -5 8 -8 7 -8 -2
0 -15 -42 -6 -48 9 -2 5 -16 9 -30 9 -30 1 -72 31 -72 52 0 19 49 47 82 48 15
0 34 -7 42 -16z m1274 4 c-3 -7 -20 -14 -39 -15 -19 -1 -26 1 -16 3 9 3 17 10
17 15 0 5 9 9 21 9 12 0 19 -5 17 -12z m1539 -35 c13 -34 47 -63 74 -63 27 0
39 -15 39 -50 0 -28 -34 -44 -62 -29 -30 16 -215 16 -230 1 -7 -7 -22 -12 -35
-12 -34 0 -31 42 5 60 15 8 36 22 48 32 42 37 110 76 132 77 13 1 25 -6 29
-16z m-1649 0 c-21 -2 -57 -2 -80 0 -24 2 -7 4 37 4 44 0 63 -2 43 -4z m2496
1 c22 -8 20 -26 -5 -58 -29 -36 -99 -34 -99 3 0 42 58 73 104 55z m1530 0 c23
-9 20 -44 -3 -44 -24 0 -33 13 -25 34 7 18 7 18 28 10z m554 -36 c16 -16 15
-37 -2 -44 -18 -7 -61 30 -51 45 8 15 38 14 53 -1z m-6563 -28 c3 -5 2 -10 -4
-10 -5 0 -13 5 -16 10 -3 6 -2 10 4 10 5 0 13 -4 16 -10z m-450 -30 c-5 -8
-11 -8 -17 -2 -6 6 -7 16 -3 22 5 8 11 8 17 2 6 -6 7 -16 3 -22z m3371 18 c8
-12 -23 -38 -88 -72 -24 -12 -47 -32 -53 -44 -5 -12 -13 -22 -17 -22 -5 0 -8
-6 -8 -14 0 -7 -7 -19 -15 -26 -13 -10 -15 -9 -15 10 0 30 27 74 59 94 14 9
46 32 71 51 51 38 56 40 66 23z m1438 -16 c-4 -19 2 -41 17 -67 29 -50 33 -52
89 -60 53 -7 74 -21 85 -54 9 -31 -11 -68 -48 -87 -39 -21 -59 -11 -106 50
l-41 53 -78 8 c-107 10 -136 9 -140 -4 -2 -6 -12 -11 -22 -11 -9 0 -34 -15
-53 -32 -20 -18 -61 -46 -92 -62 -47 -24 -60 -27 -80 -18 -35 16 -31 39 10 56
19 8 54 28 77 43 24 16 57 35 73 43 17 8 46 27 65 42 19 16 38 28 42 28 4 0
19 11 34 25 33 31 121 74 151 75 19 0 22 -4 17 -28z m216 2 c0 -18 -24 -44
-40 -44 -22 0 -26 20 -8 38 12 12 48 17 48 6z m1327 -31 c-3 -3 -10 -2 -16 2
-7 4 -7 10 2 20 10 11 13 11 15 -2 2 -8 1 -17 -1 -20z m3476 -29 c87 -42 87
-168 -1 -210 -63 -30 -152 7 -167 69 -26 108 70 188 168 141z m-8148 -15 c73
-9 102 -19 220 -74 39 -17 85 -38 103 -46 23 -10 32 -19 28 -31 -2 -11 1 -18
9 -18 20 0 33 -51 30 -112 -3 -49 -32 -135 -60 -178 -18 -28 -111 -100 -128
-100 -9 0 -17 -4 -17 -8 0 -8 -92 -52 -109 -52 -5 0 -11 -4 -13 -8 -1 -5 -39
-16 -83 -26 -44 -9 -111 -23 -150 -32 -147 -31 -335 -5 -409 57 -70 58 -85 99
-87 237 -2 94 -3 96 -100 91 -112 -6 -290 1 -284 11 3 6 22 10 42 10 52 0 36
9 -28 15 -30 3 -55 10 -57 15 -2 6 -11 10 -20 10 -33 0 23 37 76 50 55 13 71
24 47 34 -20 7 -19 33 3 45 9 5 76 14 147 20 130 12 185 26 185 47 0 15 26 25
44 18 7 -3 21 2 30 11 18 18 126 34 126 18 0 -15 -23 -33 -41 -33 -9 0 -19 -6
-22 -14 -5 -12 26 -25 68 -27 25 -1 151 35 157 45 4 6 8 8 8 4 0 -4 12 -3 28
4 39 15 154 36 172 31 8 -3 47 -9 85 -14z m372 9 c30 -7 53 -18 53 -25 0 -14
13 -15 155 -18 50 -1 108 -5 130 -9 25 -4 53 -3 70 4 37 15 60 20 110 26 38 5
39 4 21 -10 -11 -9 -26 -16 -33 -16 -7 0 -13 -5 -13 -11 0 -6 -10 -9 -22 -8
-13 2 -28 0 -35 -4 -6 -4 -22 -8 -36 -9 -23 -2 -24 -3 -10 -25 12 -18 14 -41
8 -112 -7 -84 -6 -90 14 -103 26 -16 27 -28 1 -28 -11 0 -20 5 -20 11 0 6 -9
8 -22 3 -13 -3 -20 -3 -16 1 10 11 -55 52 -101 65 -43 11 -63 30 -66 63 -1 12
-3 28 -4 35 0 6 -13 12 -28 12 -16 0 -46 5 -68 12 -22 6 -47 12 -55 12 -8 1
-16 11 -18 24 -2 12 -7 22 -12 22 -4 0 -10 9 -13 20 -3 11 -19 25 -36 31 -17
6 -31 15 -31 20 0 5 -7 9 -15 9 -8 0 -15 5 -15 10 0 14 43 13 107 -2z m3110
-3 c5 -17 -37 -57 -55 -53 -24 5 -27 37 -5 54 20 15 55 15 60 -1z m-4933 -21
c9 -4 16 -18 16 -33 0 -43 -64 -66 -102 -37 -23 17 -23 31 2 56 20 20 54 26
84 14z m7028 -16 c26 -22 30 -73 7 -102 -48 -61 -155 8 -118 76 18 34 82 49
111 26z m-7339 -25 c4 -3 2 -12 -4 -20 -16 -18 -263 -19 -257 -1 3 7 15 15 29
19 32 9 224 11 232 2z m5609 -30 c38 -34 11 -83 -47 -83 -18 0 -41 7 -49 16
-14 14 -14 18 -1 44 10 18 25 30 42 33 16 2 30 5 32 6 3 0 13 -6 23 -16z
m2284 -3 c37 -15 53 -38 54 -81 0 -48 -27 -72 -81 -71 -49 1 -75 21 -82 65 -6
46 1 62 36 80 39 19 39 19 73 7z m-3867 -49 c35 -33 39 -56 14 -91 -26 -38
-45 -49 -80 -50 -50 0 -80 18 -81 49 -2 105 79 156 147 92z m5167 -16 c54 -58
57 -123 6 -177 -72 -77 -212 -18 -214 90 0 21 5 47 12 58 22 36 73 63 119 63
37 1 48 -4 77 -34z m-9501 -46 c-2 -33 -8 -75 -13 -92 -5 -18 -15 -59 -22 -92
-22 -109 -29 -125 -55 -125 -13 0 -25 6 -28 13 -5 14 63 276 86 330 23 53 36
38 32 -34z m5782 39 c7 -6 13 -23 13 -38 0 -33 -49 -80 -82 -80 -30 0 -58 29
-58 60 0 63 78 99 127 58z m4032 11 c42 -13 91 -71 91 -108 0 -59 -65 -121
-127 -121 -117 0 -177 86 -120 171 22 32 76 67 106 69 7 0 30 -5 50 -11z
m-6054 -29 c0 -7 -6 -15 -12 -17 -8 -3 -13 4 -13 17 0 13 5 20 13 18 6 -3 12
-11 12 -18z m-3665 -67 c1 -56 1 -57 15 -32 8 15 20 29 27 32 11 4 12 -12 7
-76 -4 -44 -12 -99 -18 -121 -5 -23 -22 -94 -38 -158 -15 -65 -32 -118 -38
-118 -11 0 -35 46 -35 66 0 7 -10 14 -22 16 -28 4 -34 36 -18 92 6 23 18 66
26 96 14 50 22 79 54 195 18 63 19 65 30 65 6 0 10 -25 10 -57z m4560 41 c0
-9 -7 -14 -17 -12 -25 5 -28 28 -4 28 12 0 21 -6 21 -16z m-4185 -54 c3 -5 -2
-10 -11 -10 -10 0 -29 -11 -43 -24 -33 -30 -91 -50 -105 -36 -7 7 -4 10 7 10
9 0 17 4 17 9 0 10 97 61 116 61 7 0 16 -4 19 -10z m10005 -5 c40 -21 64 -68
57 -117 -6 -47 -21 -66 -67 -87 -57 -26 -85 -53 -114 -110 -41 -83 -84 -111
-143 -96 -37 9 -52 22 -69 63 -23 56 -18 74 41 132 30 30 55 59 55 66 0 6 23
30 50 53 28 23 50 47 50 52 0 13 31 45 50 52 28 10 61 7 90 -8z m-6280 -27 c0
-11 8 -22 20 -25 11 -3 20 -11 20 -18 0 -7 7 -18 15 -25 8 -7 15 -20 15 -29 0
-13 -2 -13 -9 -2 -5 8 -16 11 -30 6 -18 -5 -21 -2 -21 24 0 34 -13 39 -36 16
-33 -33 -99 -8 -92 36 2 18 9 24 29 25 14 1 34 6 44 11 25 14 45 6 45 -19z
m2553 0 c30 -7 42 -17 53 -43 19 -45 18 -48 -12 -84 -24 -29 -31 -31 -90 -31
-134 0 -193 34 -180 105 4 18 13 39 21 45 35 29 115 32 208 8z m-3644 -51 c22
-20 48 -37 59 -37 10 0 22 -4 28 -9 5 -5 20 -11 33 -13 13 -1 33 -15 43 -29
17 -23 18 -31 8 -67 -14 -56 -44 -82 -91 -82 -50 0 -79 35 -79 97 0 32 -4 43
-12 39 -80 -32 -123 -31 -157 5 -29 31 -32 67 -7 104 41 63 101 60 175 -8z
m-2613 41 c4 -6 -10 -27 -36 -50 -32 -29 -48 -37 -64 -32 -11 4 -23 8 -24 10
-10 8 36 52 68 66 44 20 47 21 56 6z m5721 -26 c33 -39 31 -94 -3 -121 -53
-42 -135 -14 -149 49 -8 36 7 66 48 91 39 24 74 18 104 -19z m-655 -13 c24
-32 15 -50 -43 -91 -39 -28 -82 -35 -108 -19 -18 12 -9 86 14 111 34 38 109
37 137 -1z m2333 -10 c59 -58 32 -152 -52 -179 -41 -14 -79 -6 -117 25 -25 20
-30 31 -30 74 -1 45 3 55 29 80 40 37 52 41 100 35 26 -3 50 -15 70 -35z m992
12 c7 -9 12 -29 10 -46 -2 -32 -20 -44 -94 -66 -23 -6 -59 -28 -81 -48 -21
-20 -52 -43 -68 -51 -16 -8 -52 -39 -80 -67 -28 -29 -56 -53 -63 -53 -15 0
-63 -36 -120 -90 -31 -30 -50 -40 -74 -40 -31 0 -73 21 -89 44 -11 15 -10 70
1 99 10 25 82 67 114 67 33 0 88 35 107 67 11 18 30 37 43 42 12 5 44 33 69
62 45 52 47 53 116 60 38 4 86 17 107 28 42 22 81 19 102 -8z m-7599 12 c-10
-2 -26 -2 -35 0 -10 3 -2 5 17 5 19 0 27 -2 18 -5z m2760 -33 c47 -29 58 -60
42 -111 -24 -71 -80 -100 -154 -79 -43 12 -44 12 -81 -24 -30 -30 -44 -36 -79
-36 -59 0 -96 34 -96 88 0 68 50 100 136 88 35 -4 44 -3 44 9 0 22 31 55 65
71 43 19 85 17 123 -6z m768 8 c-1 -7 -1 -10 1 -5 7 10 28 9 58 -5 24 -11 35
-38 15 -38 -5 0 -13 -1 -16 -2 -13 -5 -75 -71 -85 -89 -14 -28 -31 -24 -98 23
-59 40 -77 68 -46 68 8 0 15 4 15 9 0 9 8 12 90 36 58 17 70 18 66 3z m-4584
-97 c-4 -35 -1 -47 13 -57 16 -12 21 -9 48 27 31 42 62 49 62 14 0 -11 -6 -19
-13 -17 -8 1 -11 -2 -7 -7 3 -6 -6 -35 -19 -66 l-26 -55 -43 6 c-38 5 -46 3
-59 -15 -8 -11 -18 -18 -21 -14 -12 12 -7 51 8 66 8 8 17 35 20 59 4 23 11 65
17 93 9 39 13 45 19 30 4 -11 5 -40 1 -64z m3268 59 c0 -5 -21 -10 -46 -10
-27 0 -43 4 -39 10 3 6 24 10 46 10 21 0 39 -4 39 -10z m7357 -82 c46 -20 72
-58 73 -106 0 -59 -22 -98 -60 -106 -40 -7 -90 -43 -90 -62 0 -27 -50 -114
-75 -130 -36 -23 -108 -14 -135 17 -51 59 -47 107 12 174 33 37 46 45 75 45
30 0 34 3 33 23 -3 37 -1 43 34 87 33 42 69 69 93 70 7 0 25 -5 40 -12z
m-6304 -19 c12 -6 37 -25 55 -42 78 -75 12 -193 -122 -214 -22 -3 -44 -11 -48
-16 -3 -6 -19 -12 -35 -15 -15 -2 -29 -7 -31 -13 -6 -15 -27 -10 -39 10 -11
17 -8 24 17 50 27 27 30 36 30 98 1 57 4 72 24 94 46 52 104 71 149 48z
m-1134 -56 c12 -10 24 -35 28 -55 5 -31 1 -40 -22 -62 -36 -33 -73 -33 -109 0
-24 23 -27 32 -22 63 6 42 37 71 76 71 15 0 37 -8 49 -17z m1585 -2 c9 -14
-32 -54 -49 -47 -21 8 -19 22 7 40 26 18 35 20 42 7z m1165 -46 c8 -4 8 -12 1
-25 -7 -13 -6 -19 4 -23 10 -4 12 0 8 15 -3 14 -1 19 9 16 8 -3 14 -23 15 -56
2 -52 2 -52 -36 -63 -21 -7 -49 -9 -63 -5 -31 7 -61 52 -51 74 4 9 6 28 6 42
-1 21 0 22 6 6 8 -18 9 -18 30 5 13 13 20 29 18 36 -7 19 28 21 36 2 4 -9 11
-20 17 -24z m-5425 14 c33 -26 34 -62 1 -94 -29 -30 -58 -32 -85 -5 -26 26
-26 70 0 98 26 28 50 28 84 1z m2857 -92 c20 -16 39 -51 39 -74 0 -29 -42 -72
-77 -79 -69 -13 -113 88 -61 143 24 25 72 30 99 10z m7658 2 c47 -14 73 -51
79 -110 6 -63 -12 -90 -81 -123 -44 -20 -61 -36 -88 -81 -18 -30 -39 -55 -46
-55 -7 0 -13 -3 -13 -8 0 -4 -11 -20 -25 -35 -47 -50 -131 -24 -161 50 -13 30
-13 38 4 76 27 61 79 117 105 114 14 -1 23 5 25 18 2 11 7 22 11 25 4 3 22 27
40 53 30 44 82 87 105 87 5 0 25 -5 45 -11z m-10705 -30 c32 -37 33 -65 4 -96
-41 -44 -105 -22 -115 40 -4 29 -1 40 20 61 34 34 60 33 91 -5z m4636 7 c0 -3
-4 -8 -10 -11 -5 -3 -10 -1 -10 4 0 6 5 11 10 11 6 0 10 -2 10 -4z m1600 -20
c53 -20 70 -39 62 -69 -11 -46 -21 -50 -107 -44 -70 6 -83 10 -102 32 -25 29
-29 55 -12 87 9 17 18 19 62 15 29 -2 72 -12 97 -21z m-6476 -72 c9 -3 25 -21
37 -40 38 -62 0 -127 -65 -110 -61 15 -74 110 -18 141 33 17 27 16 46 9z m759
-81 c28 -32 26 -84 -5 -113 -25 -23 -46 -25 -83 -8 -19 9 -25 19 -25 44 0 42
18 82 39 87 35 10 59 6 74 -10z m5291 -49 c47 -35 59 -107 26 -161 -24 -40
-67 -63 -120 -63 -32 0 -48 7 -78 34 -34 31 -37 39 -36 85 0 39 6 57 25 77 50
55 129 67 183 28z m-6301 -115 c35 -19 56 -52 46 -71 -5 -9 -9 -28 -9 -41 0
-28 -16 -37 -68 -37 -45 0 -72 24 -72 64 0 51 10 72 38 83 37 15 40 15 65 2z
m798 -19 c11 0 12 -40 1 -56 -13 -20 -52 -35 -73 -29 -30 10 -23 69 9 73 12 2
22 8 22 14 0 5 7 7 16 4 9 -3 20 -6 25 -6z m5894 -60 c3 -5 -1 -10 -10 -10 -9
0 -13 5 -10 10 3 6 8 10 10 10 2 0 7 -4 10 -10z m47 -22 c-9 -9 -15 -9 -24 0
-9 9 -7 12 12 12 19 0 21 -3 12 -12z m-38 -6 c3 -5 -3 -15 -13 -24 -22 -18
-47 -8 -38 16 7 17 42 22 51 8z m-3746 -19 c2 -8 -6 -13 -22 -13 -25 0 -33 10
-19 24 10 10 36 3 41 -11z"/>
<path d="M4013 4735 c-7 -14 -19 -36 -25 -50 -7 -13 -22 -26 -33 -27 -11 -2
-19 -9 -17 -16 1 -7 -9 -12 -25 -12 -25 -1 -26 -2 -10 -14 9 -7 17 -17 17 -22
0 -5 18 -8 40 -6 22 2 40 7 40 11 0 5 18 13 40 20 22 6 40 16 40 21 0 6 9 10
20 10 11 0 20 6 20 14 0 8 15 17 35 20 19 4 36 11 37 16 5 33 0 35 -62 41 -36
4 -74 9 -85 13 -15 5 -23 0 -32 -19z m144 -31 c-3 -3 -12 -4 -19 -1 -8 3 -5 6
6 6 11 1 17 -2 13 -5z"/>
<path d="M4140 4660 c-13 -8 -12 -10 3 -10 9 0 17 5 17 10 0 12 -1 12 -20 0z"/>
<path d="M7573 4077 c-23 -10 -28 -32 -17 -75 l7 -23 16 28 c37 60 34 88 -6
70z"/>
<path d="M7680 3979 c0 -11 5 -17 10 -14 6 3 10 13 10 21 0 8 -4 14 -10 14 -5
0 -10 -9 -10 -21z"/>
<path d="M7814 3979 c-4 -7 -10 -46 -14 -88 -4 -42 -9 -83 -11 -91 -3 -12 5
-14 39 -12 45 4 46 2 42 -59 -1 -21 4 -27 26 -32 22 -4 29 1 43 26 9 17 35 50
57 72 45 43 56 72 47 117 -8 42 -33 51 -74 28 -88 -48 -105 -46 -111 13 -3 33
-30 49 -44 26z"/>
<path d="M7554 3916 c-16 -18 -24 -45 -14 -51 11 -7 40 22 40 40 0 19 -13 25
-26 11z"/>
<path d="M7680 3892 c0 -13 -5 -32 -11 -44 -13 -23 -8 -31 15 -22 18 7 21 50
6 74 -8 12 -10 10 -10 -8z"/>
<path d="M8385 3600 c-3 -5 -1 -10 4 -10 6 0 11 5 11 10 0 6 -2 10 -4 10 -3 0
-8 -4 -11 -10z"/>
<path d="M7425 3020 c-3 -5 -1 -10 4 -10 6 0 11 5 11 10 0 6 -2 10 -4 10 -3 0
-8 -4 -11 -10z"/>
<path d="M7323 2793 c9 -2 23 -2 30 0 6 3 -1 5 -18 5 -16 0 -22 -2 -12 -5z"/>
<path d="M3326 2805 c-3 -8 -1 -15 3 -15 5 0 11 7 15 15 3 8 1 15 -3 15 -5 0
-11 -7 -15 -15z"/>
<path d="M7676 2767 c-23 -22 -24 -25 -10 -43 14 -18 15 -18 9 4 -5 16 -2 22
9 22 9 0 16 5 16 10 0 11 30 13 54 4 24 -9 19 -32 -6 -37 -21 -3 -21 -4 -5
-11 13 -6 22 -3 32 10 20 27 19 32 -15 49 -40 20 -55 19 -84 -8z"/>
<path d="M7707 2709 c7 -7 15 -10 18 -7 3 3 -2 9 -12 12 -14 6 -15 5 -6 -5z"/>
<path d="M2920 2760 c-13 -9 -13 -10 0 -10 8 0 22 5 30 10 13 9 13 10 0 10 -8
0 -22 -5 -30 -10z"/>
<path d="M2464 2655 c-26 -19 -11 -31 16 -12 12 8 17 17 12 21 -5 3 -18 -1
-28 -9z"/>
<path d="M2060 2580 c0 -5 -7 -10 -17 -10 -9 0 -14 -2 -11 -5 9 -9 58 6 52 16
-7 12 -24 11 -24 -1z"/>
<path d="M2604 2579 c-7 -12 15 -31 28 -23 4 3 8 12 8 20 0 17 -26 19 -36 3z"/>
<path d="M652 2210 c0 -14 2 -19 5 -12 2 6 2 18 0 25 -3 6 -5 1 -5 -13z"/>
<path d="M615 2159 c-4 -6 -13 -8 -21 -5 -8 3 -14 0 -14 -5 0 -7 9 -9 23 -4
12 3 28 7 35 7 6 1 12 5 12 10 0 12 -28 10 -35 -3z"/>
<path d="M630 2060 c-9 -6 -10 -10 -3 -10 6 0 15 5 18 10 8 12 4 12 -15 0z"/>
<path d="M2240 2460 c-9 -6 -10 -10 -3 -10 6 0 15 5 18 10 8 12 4 12 -15 0z"/>
<path d="M784 2133 c0 -66 9 -72 20 -13 4 23 3 30 -3 21 -7 -11 -10 -6 -13 20
-3 19 -4 6 -4 -28z"/>
<path d="M771 2034 c0 -11 3 -14 6 -6 3 7 2 16 -1 19 -3 4 -6 -2 -5 -13z"/>
<path d="M871 1994 c0 -11 3 -14 6 -6 3 7 2 16 -1 19 -3 4 -6 -2 -5 -13z"/>
<path d="M3935 1440 c-3 -5 1 -10 9 -10 9 0 16 5 16 10 0 6 -4 10 -9 10 -6 0
-13 -4 -16 -10z"/>
<path d="M2800 1099 c0 -5 5 -7 10 -4 6 3 10 8 10 11 0 2 -4 4 -10 4 -5 0 -10
-5 -10 -11z"/>
<path d="M5840 5499 c0 -5 5 -7 10 -4 6 3 10 8 10 11 0 2 -4 4 -10 4 -5 0 -10
-5 -10 -11z"/>
<path d="M0 5271 c0 -24 8 -33 53 -56 28 -15 70 -38 92 -51 22 -13 51 -28 65
-34 13 -6 27 -15 30 -19 3 -4 30 -20 60 -35 55 -26 90 -46 100 -56 3 -3 48
-27 100 -54 52 -27 100 -52 105 -57 9 -7 115 -64 177 -96 15 -8 30 -18 33 -24
17 -26 102 4 93 33 -4 11 -89 59 -248 141 -58 30 -150 78 -205 107 -180 96
-442 230 -449 230 -3 0 -6 -13 -6 -29z"/>
<path d="M1611 5251 c-11 -7 -9 -10 8 -16 25 -8 36 -2 26 14 -8 13 -15 14 -34
2z"/>
<path d="M3101 4276 c-7 -8 -15 -30 -18 -50 -8 -48 17 -79 53 -66 33 13 82 50
89 68 8 22 -14 42 -47 42 -16 0 -38 4 -48 10 -13 7 -21 6 -29 -4z"/>
<path d="M3242 3701 c-20 -28 -18 -48 3 -33 10 7 35 48 35 57 0 14 -19 2 -38
-24z"/>
<path d="M3088 3708 c5 -5 16 -8 23 -6 8 3 3 7 -10 11 -17 4 -21 3 -13 -5z"/>
<path d="M0 194 c0 -8 5 -12 10 -9 6 3 10 10 10 16 0 5 -4 9 -10 9 -5 0 -10
-7 -10 -16z"/>
</g>
</svg>
