<?xml version="1.0" standalone="no"?>
<!DOCTYPE svg PUBLIC "-//W3C//DTD SVG 20010904//EN"
 "http://www.w3.org/TR/2001/REC-SVG-20010904/DTD/svg10.dtd">
<svg version="1.0" xmlns="http://www.w3.org/2000/svg"
 width="1280.000000pt" height="1054.000000pt" viewBox="0 0 1280.000000 1054.000000"
 preserveAspectRatio="xMidYMid meet">
<g transform="translate(0.000000,1054.000000) scale(0.100000,-0.100000)"
fill="#000000" stroke="none">
<path d="M10068 10519 c-75 -27 -148 -92 -179 -161 l-24 -53 0 -2555 0 -2555
23 -42 c12 -23 42 -65 67 -93 73 -82 72 -113 -5 -186 -62 -59 -83 -109 -82
-199 0 -105 38 -181 116 -234 68 -46 108 -54 311 -60 l190 -6 3 -2155 2 -2155
75 114 75 113 0 2044 0 2044 688 -2 687 -3 5 -2134 5 -2133 73 107 72 107 0
2028 0 2027 198 5 c170 4 203 7 243 25 90 40 143 105 175 214 13 43 13 56 -1
110 -20 75 -35 100 -97 160 -64 60 -62 92 11 172 21 23 53 71 70 107 l31 65
-2 2525 -3 2525 -23 57 c-30 75 -95 140 -170 170 l-57 23 -1210 2 c-1187 2
-1211 1 -1267 -18z"/>
<path d="M5285 6975 c-631 -102 -1121 -570 -1231 -1177 -35 -189 -21 -434 36
-639 110 -400 446 -765 854 -926 61 -25 120 -48 132 -53 18 -7 22 -20 28 -92
5 -64 12 -91 31 -119 l25 -35 1 -1925 1 -1924 21 60 22 60 2 1864 c3 1853 3
1865 23 1886 25 26 40 76 40 130 l0 40 243 -1 242 -1 5 -64 c4 -52 11 -72 33
-98 l27 -33 1 -1916 c1 -1874 1 -1916 19 -1862 18 53 19 138 19 1921 1 1724 2
1868 18 1880 28 24 43 75 43 147 l0 69 93 33 c484 168 845 564 959 1050 28
123 36 392 14 527 -92 583 -551 1054 -1154 1184 -129 27 -417 35 -547 14z"/>
<path d="M7778 6031 c-130 -7 -155 -17 -193 -82 -20 -34 -20 -55 -23 -1477 -2
-978 1 -1456 8 -1482 6 -21 26 -57 45 -80 19 -23 35 -48 35 -55 0 -8 -18 -35
-40 -60 -37 -42 -40 -51 -40 -103 0 -67 23 -112 72 -142 27 -16 51 -20 133
-20 55 0 110 -3 122 -6 l23 -6 2 -1227 3 -1226 38 55 37 55 0 1171 0 1171 303
4 c166 3 345 2 397 -1 l95 -5 3 -1215 2 -1215 35 52 35 52 0 1153 c0 634 4
1158 8 1164 4 7 52 13 117 16 124 5 172 21 207 70 43 62 33 162 -22 212 -39
35 -38 64 5 116 19 23 37 52 40 64 3 11 4 680 3 1486 l-3 1465 -22 31 c-13 17
-40 40 -60 50 -36 18 -72 19 -643 20 -333 0 -658 -2 -722 -5z"/>
<path d="M600 3774 c-101 -26 -212 -89 -295 -166 -173 -162 -255 -334 -291
-616 -13 -103 -14 -137 -4 -210 20 -141 46 -226 111 -363 43 -92 59 -134 54
-150 -4 -12 -31 -48 -60 -79 -63 -69 -78 -95 -99 -177 -14 -53 -16 -178 -16
-1029 l0 -969 45 47 45 47 0 938 0 939 29 45 c38 59 80 97 119 109 39 11 84
-1 237 -61 109 -43 112 -43 255 -47 167 -5 209 3 348 59 121 50 164 60 206 48
41 -11 99 -67 126 -120 20 -39 21 -56 20 -1009 0 -534 3 -970 8 -970 4 0 23
15 40 33 l33 34 -3 969 -3 969 -23 42 c-12 23 -47 70 -77 104 -71 79 -71 94
-1 240 75 156 96 236 103 394 10 219 -24 384 -114 555 -103 198 -283 347 -474
394 -81 20 -243 20 -319 0z"/>
<path d="M2870 3774 c-227 -60 -425 -249 -520 -496 -42 -110 -61 -203 -67
-346 -10 -205 18 -335 112 -522 64 -127 63 -139 -8 -217 -66 -73 -81 -96 -95
-155 -9 -34 -12 -314 -12 -1030 l1 -983 39 44 40 44 0 934 c0 913 0 935 20
973 27 52 85 108 126 119 42 12 85 2 206 -48 139 -56 181 -64 348 -59 143 4
146 4 255 47 153 60 198 72 237 61 39 -12 81 -50 119 -109 l29 -45 0 -973 c0
-535 4 -973 8 -973 4 0 23 15 40 33 l32 33 -2 965 c-3 962 -3 964 -24 1010
-12 26 -43 69 -69 95 -26 27 -53 64 -61 82 -15 33 -14 37 46 164 80 169 100
249 107 414 14 336 -94 606 -322 802 -59 51 -187 116 -270 137 -75 19 -242 19
-315 -1z"/>
</g>
</svg>
