<?xml version="1.0" standalone="no"?>
<!DOCTYPE svg PUBLIC "-//W3C//DTD SVG 20010904//EN"
 "http://www.w3.org/TR/2001/REC-SVG-20010904/DTD/svg10.dtd">
<svg version="1.0" xmlns="http://www.w3.org/2000/svg"
 width="1155.000000pt" height="1280.000000pt" viewBox="0 0 1155.000000 1280.000000"
 preserveAspectRatio="xMidYMid meet">
<g transform="translate(0.000000,1280.000000) scale(0.100000,-0.100000)"
fill="#000000" stroke="none">
<path d="M3955 12776 c-96 -35 -160 -89 -207 -179 -20 -36 -23 -57 -23 -142 0
-89 3 -106 27 -150 32 -62 104 -130 164 -157 25 -10 73 -22 107 -26 l62 -7
347 -630 c191 -346 347 -638 348 -647 0 -12 -42 -39 -142 -90 -828 -424 -1372
-1259 -1415 -2170 l-6 -138 855 0 c802 0 856 -1 870 -17 8 -10 28 -42 43 -70
16 -29 31 -53 34 -53 3 0 22 29 41 65 22 41 40 64 50 63 8 -2 30 -31 49 -66
19 -34 37 -62 40 -62 3 0 22 29 41 65 22 41 40 64 50 63 8 -2 30 -31 49 -66
19 -34 37 -62 40 -62 3 0 22 29 41 65 22 41 40 64 50 63 8 -2 30 -31 49 -66
19 -34 37 -62 40 -62 3 0 22 29 41 65 22 41 41 64 50 63 8 -2 30 -31 50 -66
19 -34 37 -62 40 -62 3 0 21 29 40 65 22 41 41 64 50 63 8 -2 30 -31 50 -66
19 -34 37 -62 41 -62 3 0 21 29 40 65 21 41 40 64 49 63 8 -2 30 -31 50 -66
19 -34 37 -62 41 -62 3 0 21 29 40 65 18 36 41 65 49 65 8 0 31 -29 49 -65 19
-36 37 -65 40 -65 4 0 22 28 41 62 20 35 42 64 50 66 9 1 28 -22 49 -63 19
-36 38 -65 41 -65 3 0 23 32 44 70 l37 70 941 0 941 0 -7 128 c-30 552 -228
1069 -573 1497 -97 120 -306 326 -423 417 -123 95 -288 200 -417 266 -62 31
-113 62 -113 69 0 7 151 257 335 555 l336 543 72 6 c89 8 151 34 212 90 70 65
98 126 103 230 4 78 2 92 -23 147 -34 75 -110 151 -180 178 -35 13 -75 19
-135 19 -78 0 -90 -3 -148 -34 -171 -93 -230 -305 -131 -465 24 -39 28 -54 21
-70 -9 -21 -679 -1106 -687 -1115 -3 -2 -55 10 -117 28 -251 70 -387 91 -648
98 -287 8 -483 -13 -735 -78 -66 -18 -129 -32 -140 -33 -16 -1 -84 115 -372
639 -194 352 -353 645 -353 651 0 6 16 37 35 69 78 129 68 277 -25 395 -36 46
-77 72 -162 106 -74 29 -114 29 -193 0z"/>
<path d="M9317 8776 c-62 -17 -116 -61 -147 -122 l-25 -48 0 -476 c0 -471 0
-475 22 -516 28 -52 95 -111 142 -124 23 -6 360 -10 901 -10 849 0 866 1 910
21 60 27 88 54 116 114 l24 50 0 468 c0 515 1 509 -63 575 -18 19 -50 43 -72
55 l-40 22 -860 2 c-681 2 -870 -1 -908 -11z"/>
<path d="M480 8701 c-48 -10 -89 -33 -127 -73 -64 -66 -63 -59 -63 -575 0
-449 1 -470 21 -513 27 -60 54 -88 114 -116 l50 -24 873 0 c963 0 911 -3 980
63 19 18 43 50 55 72 22 39 22 47 22 515 l0 475 -23 47 c-30 60 -89 108 -155
125 -41 10 -222 13 -882 12 -456 -1 -846 -4 -865 -8z"/>
<path d="M2765 8101 c-72 -18 -123 -60 -150 -123 -13 -33 -15 -196 -15 -1440
0 -1343 1 -1405 19 -1444 23 -51 81 -99 137 -113 26 -7 165 -11 363 -11 l321
0 4 -22 c2 -13 9 -52 15 -88 30 -181 178 -350 361 -413 63 -21 83 -22 550 -27
l485 -5 5 -415 c5 -381 7 -419 24 -460 50 -117 140 -216 239 -265 50 -24 168
-54 213 -55 19 0 23 -9 33 -61 23 -132 104 -242 218 -297 l58 -27 3 -177 c3
-204 18 -179 -118 -198 -154 -22 -345 -90 -484 -171 -433 -256 -706 -723 -706
-1210 l0 -109 423 -2 422 -3 5 -365 5 -365 28 -57 c35 -72 91 -120 176 -153
66 -25 70 -25 356 -25 286 0 290 0 356 25 85 33 141 81 176 153 l28 57 5 365
5 365 423 3 422 2 0 109 c0 487 -272 954 -706 1210 -139 81 -330 149 -484 171
-136 19 -121 -6 -118 198 l3 177 58 27 c114 55 195 165 218 297 10 52 14 61
33 61 45 1 163 31 213 55 99 49 189 148 239 265 17 41 19 79 24 460 l5 415
490 5 490 5 65 26 c185 71 322 231 351 409 6 36 13 75 15 88 l4 22 321 0 c198
0 337 4 363 11 56 14 114 62 137 113 18 39 19 101 19 1444 0 1244 -2 1407 -15
1440 -20 47 -50 78 -100 105 l-40 22 -2980 2 c-1639 0 -2993 -2 -3010 -6z
m3210 -5827 c504 -86 924 -515 997 -1019 10 -74 10 -88 -2 -95 -16 -10 -591
-14 -627 -4 l-22 6 -3 382 -3 381 -28 57 c-30 61 -74 105 -140 140 -41 23 -48
23 -392 23 -344 0 -351 0 -392 -23 -66 -35 -110 -79 -140 -140 l-28 -57 -3
-381 -3 -382 -22 -6 c-36 -10 -611 -6 -627 4 -12 7 -12 21 -2 95 51 354 281
687 602 875 247 144 539 195 835 144z"/>
<path d="M9452 7328 c-13 -13 -18 -311 -6 -342 6 -14 82 -16 760 -16 l754 0
-2 183 -3 182 -745 3 c-572 2 -749 -1 -758 -10z"/>
<path d="M597 7253 c-4 -3 -7 -87 -7 -185 l0 -178 754 0 c678 0 754 2 760 16
12 31 7 329 -6 342 -9 9 -190 12 -753 12 -408 0 -745 -3 -748 -7z"/>
<path d="M9444 6837 c-2 -7 -3 -87 -2 -177 l3 -165 758 -3 757 -2 0 180 0 180
-755 0 c-607 0 -757 -3 -761 -13z"/>
<path d="M590 6590 l0 -180 758 2 757 3 0 175 0 175 -757 3 -758 2 0 -180z"/>
<path d="M9444 6347 c-2 -7 -3 -87 -2 -177 l3 -165 758 -3 757 -2 0 180 0 180
-755 0 c-607 0 -757 -3 -761 -13z"/>
<path d="M590 6100 l0 -180 758 2 757 3 0 175 0 175 -757 3 -758 2 0 -180z"/>
<path d="M9298 5860 c-52 -16 -98 -52 -124 -96 -22 -38 -27 -60 -31 -147 -9
-174 24 -259 118 -307 37 -19 62 -20 942 -20 l904 0 44 23 c24 13 58 43 74 66
29 41 30 47 33 174 4 150 -4 191 -50 243 -65 74 9 69 -988 71 -492 1 -907 -2
-922 -7z"/>
<path d="M465 5785 c-5 -2 -22 -6 -38 -9 -40 -9 -103 -71 -122 -120 -13 -34
-16 -71 -13 -179 3 -132 4 -136 33 -179 18 -25 49 -52 75 -65 l44 -23 904 0
c879 0 904 1 941 20 87 44 121 121 121 268 -1 147 -31 216 -113 263 l-42 24
-890 2 c-490 1 -894 0 -900 -2z"/>
<path d="M9444 5137 c-2 -7 -3 -87 -2 -177 l3 -165 758 -3 757 -2 0 180 0 180
-755 0 c-607 0 -757 -3 -761 -13z"/>
<path d="M590 4890 l0 -180 758 2 757 3 0 175 0 175 -757 3 -758 2 0 -180z"/>
<path d="M9447 4663 c-4 -3 -7 -84 -7 -179 0 -172 0 -174 23 -179 12 -3 353
-4 757 -3 l735 3 3 183 2 182 -753 0 c-415 0 -757 -3 -760 -7z"/>
<path d="M592 4408 l3 -183 735 -3 c404 -1 745 0 758 3 22 5 22 6 20 183 l-3
177 -758 3 -757 2 2 -182z"/>
<path d="M9447 4173 c-4 -3 -7 -82 -7 -173 0 -129 3 -170 14 -179 9 -8 216
-10 757 -9 l744 3 3 183 2 182 -753 0 c-415 0 -757 -3 -760 -7z"/>
<path d="M592 3918 l3 -183 749 -3 c593 -2 751 0 758 10 9 15 11 319 2 342 -6
14 -82 16 -760 16 l-754 0 2 -182z"/>
<path d="M9532 3638 c-27 -34 -601 -1039 -612 -1072 -16 -48 -9 -140 14 -187
22 -47 78 -103 125 -125 20 -10 66 -20 104 -22 57 -4 75 0 120 22 29 14 64 37
78 51 13 15 126 203 250 418 l227 392 359 3 c333 2 361 1 375 -15 28 -33 348
-596 348 -613 0 -9 -97 -185 -216 -391 -120 -206 -223 -388 -230 -406 -22 -52
-18 -150 10 -208 44 -95 128 -147 237 -148 54 0 75 5 119 29 29 16 66 45 81
64 15 19 160 266 323 548 l296 512 -334 578 -333 577 -665 3 c-525 2 -668 -1
-676 -10z"/>
<path d="M683 3562 c-6 -4 -160 -265 -342 -579 l-331 -573 296 -512 c163 -282
308 -529 323 -548 15 -19 52 -48 81 -64 43 -24 65 -29 119 -29 77 0 125 18
180 68 57 52 84 122 79 209 l-3 71 -225 390 c-124 214 -226 399 -228 410 -3
19 308 573 346 618 14 16 44 17 366 17 193 0 356 -4 362 -8 6 -4 112 -180 234
-392 122 -212 234 -398 248 -413 15 -15 50 -39 79 -54 47 -23 62 -25 128 -21
64 4 82 10 123 37 103 71 148 194 110 302 -11 31 -587 1037 -610 1067 -8 9
-154 12 -667 12 -361 0 -661 -4 -668 -8z"/>
</g>
</svg>
